{
	"patcher" : 	{
		"fileversion" : 1,
		"appversion" : 		{
			"major" : 8,
			"minor" : 1,
			"revision" : 3,
			"architecture" : "x64",
			"modernui" : 1
		}
,
		"classnamespace" : "box",
		"rect" : [ 59.0, 86.0, 996.0, 736.0 ],
		"bglocked" : 0,
		"openinpresentation" : 0,
		"default_fontsize" : 12.0,
		"default_fontface" : 0,
		"default_fontname" : "Arial",
		"gridonopen" : 1,
		"gridsize" : [ 15.0, 15.0 ],
		"gridsnaponopen" : 1,
		"objectsnaponopen" : 1,
		"statusbarvisible" : 2,
		"toolbarvisible" : 1,
		"lefttoolbarpinned" : 0,
		"toptoolbarpinned" : 0,
		"righttoolbarpinned" : 0,
		"bottomtoolbarpinned" : 0,
		"toolbars_unpinned_last_save" : 0,
		"tallnewobj" : 0,
		"boxanimatetime" : 200,
		"enablehscroll" : 1,
		"enablevscroll" : 1,
		"devicewidth" : 0.0,
		"description" : "",
		"digest" : "",
		"tags" : "",
		"style" : "",
		"subpatcher_template" : "",
		"boxes" : [ 			{
				"box" : 				{
					"fontname" : "Avenir Next Bold Italic",
					"id" : "obj-4",
					"maxclass" : "comment",
					"numinlets" : 1,
					"numoutlets" : 0,
					"patching_rect" : [ 347.331371784210205, 542.210882186889648, 54.0, 23.0 ],
					"text" : "text",
					"textjustification" : 1
				}

			}
, 			{
				"box" : 				{
					"fontname" : "Avenir Next Bold Italic",
					"id" : "obj-3",
					"maxclass" : "comment",
					"numinlets" : 1,
					"numoutlets" : 0,
					"patching_rect" : [ 409.310083866119385, 542.210882186889648, 54.0, 23.0 ],
					"text" : "text",
					"textjustification" : 1
				}

			}
, 			{
				"box" : 				{
					"fontname" : "Avenir Next Bold Italic",
					"id" : "obj-61",
					"maxclass" : "comment",
					"numinlets" : 1,
					"numoutlets" : 0,
					"patching_rect" : [ 512.063770771026611, 544.210882186889648, 54.0, 23.0 ],
					"text" : "text",
					"textjustification" : 1
				}

			}
, 			{
				"box" : 				{
					"border" : 1.099999999999999,
					"id" : "obj-74",
					"linecolor" : [ 0.352941176470588, 0.352941176470588, 0.352941176470588, 0.68 ],
					"maxclass" : "live.line",
					"numinlets" : 1,
					"numoutlets" : 0,
					"patching_rect" : [ 476.331371784210205, 560.231887817382812, 125.464797973632812, 5.0 ]
				}

			}
, 			{
				"box" : 				{
					"border" : 1.099999999999999,
					"id" : "obj-73",
					"linecolor" : [ 0.352941176470588, 0.352941176470588, 0.352941176470588, 0.68 ],
					"maxclass" : "live.line",
					"numinlets" : 1,
					"numoutlets" : 0,
					"patching_rect" : [ 599.796093463897705, 560.231887817382812, 5.000000953674316, 26.599994659423828 ]
				}

			}
, 			{
				"box" : 				{
					"bgcolor" : [ 0.235294117647059, 0.215686274509804, 0.215686274509804, 0.0 ],
					"degrees" : 290,
					"id" : "obj-66",
					"maxclass" : "dial",
					"mode" : 4,
					"needlecolor" : [ 0.0, 0.0, 0.0, 1.0 ],
					"numinlets" : 1,
					"numoutlets" : 1,
					"outlettype" : [ "float" ],
					"outlinecolor" : [ 0.0, 0.0, 0.0, 1.0 ],
					"parameter_enable" : 0,
					"patching_rect" : [ 347.331371784210205, 558.058181762695312, 54.972072601318359, 54.972072601318359 ],
					"thickness" : 40.0
				}

			}
, 			{
				"box" : 				{
					"angle" : 270.0,
					"grad1" : [ 0.96078431372549, 0.901960784313726, 0.529411764705882, 1.0 ],
					"grad2" : [ 0.643137254901961, 0.576470588235294, 0.305882352941176, 1.0 ],
					"id" : "obj-67",
					"maxclass" : "panel",
					"mode" : 1,
					"numinlets" : 1,
					"numoutlets" : 0,
					"patching_rect" : [ 355.817455768585205, 566.544204711914062, 38.0, 38.0 ],
					"proportion" : 0.5,
					"shape" : 1
				}

			}
, 			{
				"box" : 				{
					"bgcolor" : [ 0.235294117647059, 0.215686274509804, 0.215686274509804, 0.0 ],
					"degrees" : 296,
					"id" : "obj-68",
					"ignoreclick" : 1,
					"maxclass" : "dial",
					"mode" : 1,
					"needlecolor" : [ 0.0, 0.0, 0.0, 1.0 ],
					"numinlets" : 1,
					"numoutlets" : 1,
					"outlettype" : [ "float" ],
					"outlinecolor" : [ 0.0, 0.0, 0.0, 1.0 ],
					"parameter_enable" : 0,
					"patching_rect" : [ 347.331371784210205, 558.058181762695312, 54.972072601318359, 54.972072601318359 ],
					"thickness" : 165.100000000000165
				}

			}
, 			{
				"box" : 				{
					"bgcolor" : [ 0.235294117647059, 0.215686274509804, 0.215686274509804, 0.0 ],
					"degrees" : 290,
					"id" : "obj-69",
					"maxclass" : "dial",
					"mode" : 4,
					"needlecolor" : [ 0.0, 0.0, 0.0, 1.0 ],
					"numinlets" : 1,
					"numoutlets" : 1,
					"outlettype" : [ "float" ],
					"outlinecolor" : [ 0.0, 0.0, 0.0, 1.0 ],
					"parameter_enable" : 0,
					"patching_rect" : [ 408.824047565460205, 558.058181762695312, 54.972072601318359, 54.972072601318359 ],
					"thickness" : 40.0
				}

			}
, 			{
				"box" : 				{
					"angle" : 270.0,
					"grad1" : [ 0.96078431372549, 0.901960784313726, 0.529411764705882, 1.0 ],
					"grad2" : [ 0.643137254901961, 0.576470588235294, 0.305882352941176, 1.0 ],
					"id" : "obj-70",
					"maxclass" : "panel",
					"mode" : 1,
					"numinlets" : 1,
					"numoutlets" : 0,
					"patching_rect" : [ 417.310131549835205, 566.544204711914062, 38.0, 38.0 ],
					"proportion" : 0.5,
					"shape" : 1
				}

			}
, 			{
				"box" : 				{
					"bgcolor" : [ 0.235294117647059, 0.215686274509804, 0.215686274509804, 0.0 ],
					"degrees" : 296,
					"id" : "obj-71",
					"ignoreclick" : 1,
					"maxclass" : "dial",
					"mode" : 1,
					"needlecolor" : [ 0.0, 0.0, 0.0, 1.0 ],
					"numinlets" : 1,
					"numoutlets" : 1,
					"outlettype" : [ "float" ],
					"outlinecolor" : [ 0.0, 0.0, 0.0, 1.0 ],
					"parameter_enable" : 0,
					"patching_rect" : [ 408.824047565460205, 558.058181762695312, 54.972072601318359, 54.972072601318359 ],
					"thickness" : 165.100000000000165
				}

			}
, 			{
				"box" : 				{
					"bgcolor" : [ 0.235294117647059, 0.215686274509804, 0.215686274509804, 0.0 ],
					"degrees" : 290,
					"id" : "obj-62",
					"maxclass" : "dial",
					"mode" : 4,
					"needlecolor" : [ 0.0, 0.0, 0.0, 1.0 ],
					"numinlets" : 1,
					"numoutlets" : 1,
					"outlettype" : [ "float" ],
					"outlinecolor" : [ 0.0, 0.0, 0.0, 1.0 ],
					"parameter_enable" : 0,
					"patching_rect" : [ 479.331371784210205, 562.058181762695312, 54.972072601318359, 54.972072601318359 ],
					"thickness" : 40.0
				}

			}
, 			{
				"box" : 				{
					"angle" : 270.0,
					"grad1" : [ 0.96078431372549, 0.901960784313726, 0.529411764705882, 1.0 ],
					"grad2" : [ 0.643137254901961, 0.576470588235294, 0.305882352941176, 1.0 ],
					"id" : "obj-63",
					"maxclass" : "panel",
					"mode" : 1,
					"numinlets" : 1,
					"numoutlets" : 0,
					"patching_rect" : [ 487.817455768585205, 570.544204711914062, 38.0, 38.0 ],
					"proportion" : 0.5,
					"shape" : 1
				}

			}
, 			{
				"box" : 				{
					"bgcolor" : [ 0.235294117647059, 0.215686274509804, 0.215686274509804, 0.0 ],
					"degrees" : 296,
					"id" : "obj-65",
					"ignoreclick" : 1,
					"maxclass" : "dial",
					"mode" : 1,
					"needlecolor" : [ 0.0, 0.0, 0.0, 1.0 ],
					"numinlets" : 1,
					"numoutlets" : 1,
					"outlettype" : [ "float" ],
					"outlinecolor" : [ 0.0, 0.0, 0.0, 1.0 ],
					"parameter_enable" : 0,
					"patching_rect" : [ 479.331371784210205, 562.058181762695312, 54.972072601318359, 54.972072601318359 ],
					"thickness" : 165.100000000000165
				}

			}
, 			{
				"box" : 				{
					"border" : 1.099999999999999,
					"id" : "obj-59",
					"linecolor" : [ 0.352941176470588, 0.352941176470588, 0.352941176470588, 0.68 ],
					"maxclass" : "live.line",
					"numinlets" : 1,
					"numoutlets" : 0,
					"patching_rect" : [ 476.331371784210205, 560.231887817382812, 5.0, 26.599994659423828 ]
				}

			}
, 			{
				"box" : 				{
					"bgcolor" : [ 0.235294117647059, 0.215686274509804, 0.215686274509804, 0.0 ],
					"degrees" : 290,
					"id" : "obj-39",
					"maxclass" : "dial",
					"mode" : 4,
					"needlecolor" : [ 0.0, 0.0, 0.0, 1.0 ],
					"numinlets" : 1,
					"numoutlets" : 1,
					"outlettype" : [ "float" ],
					"outlinecolor" : [ 0.0, 0.0, 0.0, 1.0 ],
					"parameter_enable" : 0,
					"patching_rect" : [ 540.824047565460205, 562.058181762695312, 54.972072601318359, 54.972072601318359 ],
					"thickness" : 40.0
				}

			}
, 			{
				"box" : 				{
					"angle" : 270.0,
					"grad1" : [ 0.96078431372549, 0.901960784313726, 0.529411764705882, 1.0 ],
					"grad2" : [ 0.643137254901961, 0.576470588235294, 0.305882352941176, 1.0 ],
					"id" : "obj-47",
					"maxclass" : "panel",
					"mode" : 1,
					"numinlets" : 1,
					"numoutlets" : 0,
					"patching_rect" : [ 549.310131549835205, 570.544204711914062, 38.0, 38.0 ],
					"proportion" : 0.5,
					"shape" : 1
				}

			}
, 			{
				"box" : 				{
					"bgcolor" : [ 0.235294117647059, 0.215686274509804, 0.215686274509804, 0.0 ],
					"degrees" : 296,
					"id" : "obj-56",
					"ignoreclick" : 1,
					"maxclass" : "dial",
					"mode" : 1,
					"needlecolor" : [ 0.0, 0.0, 0.0, 1.0 ],
					"numinlets" : 1,
					"numoutlets" : 1,
					"outlettype" : [ "float" ],
					"outlinecolor" : [ 0.0, 0.0, 0.0, 1.0 ],
					"parameter_enable" : 0,
					"patching_rect" : [ 540.824047565460205, 562.058181762695312, 54.972072601318359, 54.972072601318359 ],
					"thickness" : 165.100000000000165
				}

			}
, 			{
				"box" : 				{
					"angle" : 270.0,
					"border" : 2,
					"bordercolor" : [ 0.0, 0.0, 0.0, 1.0 ],
					"grad1" : [ 0.650106251239777, 0.472758948802948, 0.144283920526505, 1.0 ],
					"grad2" : [ 0.827450980392157, 0.827450980392157, 0.435294117647059, 1.0 ],
					"id" : "obj-17",
					"maxclass" : "panel",
					"mode" : 1,
					"numinlets" : 1,
					"numoutlets" : 0,
					"patching_rect" : [ 38.833324909210205, 535.210882186889648, 714.66668701171875, 85.666671752929688 ],
					"proportion" : 0.5
				}

			}
, 			{
				"box" : 				{
					"angle" : 270.0,
					"bgcolor" : [ 0.996078431372549, 0.996078431372549, 0.996078431372549, 0.0 ],
					"border" : 5,
					"bordercolor" : [ 0.996078431372549, 0.996078431372549, 0.996078431372549, 1.0 ],
					"id" : "obj-16",
					"maxclass" : "panel",
					"mode" : 0,
					"numinlets" : 1,
					"numoutlets" : 0,
					"patching_rect" : [ 38.833324909210205, 402.0999755859375, 714.66668701171875, 169.333328247070312 ],
					"proportion" : 0.5
				}

			}
, 			{
				"box" : 				{
					"fontname" : "Zapfino",
					"fontsize" : 40.0,
					"id" : "obj-60",
					"maxclass" : "comment",
					"numinlets" : 1,
					"numoutlets" : 0,
					"patching_rect" : [ 338.169994831085205, 435.250167846679688, 234.999984741210938, 142.0 ],
					"text" : "tovall",
					"textcolor" : [ 0.996078431606293, 0.996078431606293, 0.996078431606293, 1.0 ]
				}

			}
, 			{
				"box" : 				{
					"fontname" : "Zapfino",
					"fontsize" : 60.0,
					"id" : "obj-64",
					"maxclass" : "comment",
					"numinlets" : 1,
					"numoutlets" : 0,
					"patching_rect" : [ 292.503490924835205, 400.250167846679688, 121.0, 209.0 ],
					"text" : "S",
					"textcolor" : [ 0.996078431606293, 0.996078431606293, 0.996078431606293, 1.0 ]
				}

			}
, 			{
				"box" : 				{
					"angle" : 270.0,
					"bgcolor" : [ 0.827450980392157, 0.827450980392157, 0.827450980392157, 0.82 ],
					"border" : 9,
					"bordercolor" : [ 0.0, 0.0, 0.0, 1.0 ],
					"id" : "obj-55",
					"maxclass" : "panel",
					"mode" : 0,
					"numinlets" : 1,
					"numoutlets" : 0,
					"patching_rect" : [ 183.16668701171875, 208.1484375, 121.26873779296875, 77.32635498046875 ],
					"proportion" : 0.5,
					"rounded" : 7
				}

			}
, 			{
				"box" : 				{
					"fontname" : "Gill Sans",
					"fontsize" : 14.0,
					"id" : "obj-34",
					"maxclass" : "comment",
					"numinlets" : 1,
					"numoutlets" : 0,
					"patching_rect" : [ 183.16668701171875, 181.07470703125, 122.0, 23.0 ],
					"text" : "Tube Screamer",
					"textcolor" : [ 0.996078431606293, 0.976470589637756, 0.976470589637756, 1.0 ],
					"textjustification" : 1
				}

			}
, 			{
				"box" : 				{
					"fontface" : 0,
					"fontname" : "Avenir Next Bold Italic",
					"fontsize" : 24.0,
					"id" : "obj-37",
					"maxclass" : "comment",
					"numinlets" : 1,
					"numoutlets" : 0,
					"patching_rect" : [ 183.16668701171875, 152.6484375, 122.0, 39.0 ],
					"text" : "Stovall",
					"textcolor" : [ 0.141274973750114, 0.447048187255859, 0.824326395988464, 1.0 ],
					"textjustification" : 1
				}

			}
, 			{
				"box" : 				{
					"bgcolor" : [ 0.235294117647059, 0.215686274509804, 0.215686274509804, 0.0 ],
					"degrees" : 290,
					"id" : "obj-54",
					"maxclass" : "dial",
					"mode" : 4,
					"needlecolor" : [ 0.0, 0.0, 0.0, 1.0 ],
					"numinlets" : 1,
					"numoutlets" : 1,
					"outlettype" : [ "float" ],
					"outlinecolor" : [ 0.0, 0.0, 0.0, 1.0 ],
					"parameter_enable" : 0,
					"patching_rect" : [ 219.3472900390625, 83.002685546875, 47.472072601318359, 47.472072601318359 ],
					"thickness" : 40.0
				}

			}
, 			{
				"box" : 				{
					"bgcolor" : [ 0.235294117647059, 0.215686274509804, 0.215686274509804, 0.0 ],
					"degrees" : 290,
					"id" : "obj-53",
					"maxclass" : "dial",
					"mode" : 4,
					"needlecolor" : [ 0.0, 0.0, 0.0, 1.0 ],
					"numinlets" : 1,
					"numoutlets" : 1,
					"outlettype" : [ "float" ],
					"outlinecolor" : [ 0.0, 0.0, 0.0, 1.0 ],
					"parameter_enable" : 0,
					"patching_rect" : [ 258.122802734375, 48.24139404296875, 54.972072601318359, 54.972072601318359 ],
					"thickness" : 40.0
				}

			}
, 			{
				"box" : 				{
					"bgcolor" : [ 0.235294117647059, 0.215686274509804, 0.215686274509804, 0.0 ],
					"degrees" : 290,
					"id" : "obj-40",
					"maxclass" : "dial",
					"mode" : 4,
					"needlecolor" : [ 0.0, 0.0, 0.0, 1.0 ],
					"numinlets" : 1,
					"numoutlets" : 1,
					"outlettype" : [ "float" ],
					"outlinecolor" : [ 0.0, 0.0, 0.0, 1.0 ],
					"parameter_enable" : 0,
					"patching_rect" : [ 174.85406494140625, 48.24139404296875, 54.972072601318359, 54.972072601318359 ],
					"thickness" : 40.0
				}

			}
, 			{
				"box" : 				{
					"angle" : 270.0,
					"grad1" : [ 0.866666666666667, 0.866666666666667, 0.866666666666667, 1.0 ],
					"grad2" : [ 0.737254901960784, 0.737254901960784, 0.737254901960784, 1.0 ],
					"id" : "obj-49",
					"maxclass" : "panel",
					"mode" : 1,
					"numinlets" : 1,
					"numoutlets" : 0,
					"patching_rect" : [ 266.60882568359375, 56.7274169921875, 38.0, 38.0 ],
					"proportion" : 0.5,
					"shape" : 1
				}

			}
, 			{
				"box" : 				{
					"angle" : 270.0,
					"grad1" : [ 0.866666666666667, 0.866666666666667, 0.866666666666667, 1.0 ],
					"grad2" : [ 0.737254901960784, 0.737254901960784, 0.737254901960784, 1.0 ],
					"id" : "obj-48",
					"maxclass" : "panel",
					"mode" : 1,
					"numinlets" : 1,
					"numoutlets" : 0,
					"patching_rect" : [ 227.14569091796875, 90.4747314453125, 32.0, 32.0 ],
					"proportion" : 0.5,
					"shape" : 1
				}

			}
, 			{
				"box" : 				{
					"angle" : 270.0,
					"grad1" : [ 0.866666666666667, 0.866666666666667, 0.866666666666667, 1.0 ],
					"grad2" : [ 0.737254901960784, 0.737254901960784, 0.737254901960784, 1.0 ],
					"id" : "obj-41",
					"maxclass" : "panel",
					"mode" : 1,
					"numinlets" : 1,
					"numoutlets" : 0,
					"patching_rect" : [ 183.340087890625, 56.7274169921875, 38.0, 38.0 ],
					"proportion" : 0.5,
					"shape" : 1
				}

			}
, 			{
				"box" : 				{
					"bgcolor" : [ 0.235294117647059, 0.215686274509804, 0.215686274509804, 0.0 ],
					"degrees" : 296,
					"id" : "obj-52",
					"ignoreclick" : 1,
					"maxclass" : "dial",
					"mode" : 1,
					"needlecolor" : [ 0.0, 0.0, 0.0, 1.0 ],
					"numinlets" : 1,
					"numoutlets" : 1,
					"outlettype" : [ "float" ],
					"outlinecolor" : [ 0.0, 0.0, 0.0, 1.0 ],
					"parameter_enable" : 0,
					"patching_rect" : [ 219.3472900390625, 83.002685546875, 47.305404663085938, 47.305404663085938 ],
					"thickness" : 165.100000000000165
				}

			}
, 			{
				"box" : 				{
					"bgcolor" : [ 0.235294117647059, 0.215686274509804, 0.215686274509804, 0.0 ],
					"degrees" : 296,
					"id" : "obj-51",
					"ignoreclick" : 1,
					"maxclass" : "dial",
					"mode" : 1,
					"needlecolor" : [ 0.0, 0.0, 0.0, 1.0 ],
					"numinlets" : 1,
					"numoutlets" : 1,
					"outlettype" : [ "float" ],
					"outlinecolor" : [ 0.0, 0.0, 0.0, 1.0 ],
					"parameter_enable" : 0,
					"patching_rect" : [ 258.122802734375, 48.24139404296875, 54.972072601318359, 54.972072601318359 ],
					"thickness" : 165.100000000000165
				}

			}
, 			{
				"box" : 				{
					"bgcolor" : [ 0.235294117647059, 0.215686274509804, 0.215686274509804, 0.0 ],
					"degrees" : 296,
					"id" : "obj-50",
					"ignoreclick" : 1,
					"maxclass" : "dial",
					"mode" : 1,
					"needlecolor" : [ 0.0, 0.0, 0.0, 1.0 ],
					"numinlets" : 1,
					"numoutlets" : 1,
					"outlettype" : [ "float" ],
					"outlinecolor" : [ 0.0, 0.0, 0.0, 1.0 ],
					"parameter_enable" : 0,
					"patching_rect" : [ 174.85406494140625, 48.24139404296875, 54.972072601318359, 54.972072601318359 ],
					"thickness" : 165.100000000000165
				}

			}
, 			{
				"box" : 				{
					"bgcolor" : [ 0.2, 0.2, 0.2, 0.0 ],
					"id" : "obj-46",
					"ignoreclick" : 1,
					"maxclass" : "led",
					"numinlets" : 1,
					"numoutlets" : 1,
					"oncolor" : [ 0.886274509803922, 0.337254901960784, 0.337254901960784, 0.71 ],
					"outlettype" : [ "int" ],
					"parameter_enable" : 0,
					"patching_rect" : [ 235.66668701171875, 45.56146240234375, 17.0, 17.0 ],
					"thickness" : 100.0
				}

			}
, 			{
				"box" : 				{
					"fontname" : "Avenir Next Regular",
					"fontsize" : 8.0,
					"id" : "obj-45",
					"maxclass" : "comment",
					"numinlets" : 1,
					"numoutlets" : 0,
					"patching_rect" : [ 227.14569091796875, 71.274749755859375, 33.0, 17.0 ],
					"text" : "TONE",
					"textjustification" : 1
				}

			}
, 			{
				"box" : 				{
					"fontname" : "Avenir Next Regular",
					"fontsize" : 8.0,
					"id" : "obj-43",
					"maxclass" : "comment",
					"numinlets" : 1,
					"numoutlets" : 0,
					"patching_rect" : [ 269.1876220703125, 94.4747314453125, 33.0, 17.0 ],
					"text" : "LEVEL",
					"textjustification" : 1
				}

			}
, 			{
				"box" : 				{
					"bgcolor" : [ 0.2, 0.2, 0.2, 0.0 ],
					"id" : "obj-32",
					"ignoreclick" : 1,
					"maxclass" : "led",
					"numinlets" : 1,
					"numoutlets" : 1,
					"oncolor" : [ 0.886274509803922, 0.337254901960784, 0.337254901960784, 0.71 ],
					"outlettype" : [ "int" ],
					"parameter_enable" : 0,
					"patching_rect" : [ 387.66666841506958, 117.620057225227356, 17.0, 17.0 ],
					"thickness" : 100.0
				}

			}
, 			{
				"box" : 				{
					"fontname" : "Avenir Next Regular",
					"fontsize" : 8.0,
					"id" : "obj-33",
					"maxclass" : "comment",
					"numinlets" : 1,
					"numoutlets" : 0,
					"patching_rect" : [ 186.17340087890625, 94.4747314453125, 33.0, 17.0 ],
					"text" : "DRIVE",
					"textjustification" : 1
				}

			}
, 			{
				"box" : 				{
					"id" : "obj-35",
					"maxclass" : "toggle",
					"numinlets" : 1,
					"numoutlets" : 1,
					"outlettype" : [ "int" ],
					"parameter_enable" : 0,
					"patching_rect" : [ 361.166667819023132, 125.95339024066925, 20.0, 20.0 ]
				}

			}
, 			{
				"box" : 				{
					"bgcolor" : [ 0.847058823529412, 0.843137254901961, 0.843137254901961, 0.0 ],
					"id" : "obj-36",
					"maxclass" : "led",
					"numinlets" : 1,
					"numoutlets" : 1,
					"offcolor" : [ 0.458823529411765, 0.458823529411765, 0.458823529411765, 0.5 ],
					"oncolor" : [ 0.694117647058824, 0.694117647058824, 0.694117647058824, 1.0 ],
					"outlettype" : [ "int" ],
					"parameter_enable" : 0,
					"patching_rect" : [ 361.166667819023132, 60.800006866455078, 40.0, 40.0 ],
					"thickness" : 100.0
				}

			}
, 			{
				"box" : 				{
					"angle" : 270.0,
					"bgcolor" : [ 0.607843137254902, 0.607843137254902, 0.607843137254902, 0.83 ],
					"border" : 6,
					"bordercolor" : [ 0.0, 0.0, 0.0, 1.0 ],
					"id" : "obj-38",
					"maxclass" : "panel",
					"mode" : 0,
					"numinlets" : 1,
					"numoutlets" : 0,
					"patching_rect" : [ 183.16668701171875, 148.57470703125, 121.26873779296875, 67.9000244140625 ],
					"proportion" : 0.5
				}

			}
, 			{
				"box" : 				{
					"angle" : 270.0,
					"bgcolor" : [ 0.298039215686275, 0.729411764705882, 0.380392156862745, 1.0 ],
					"id" : "obj-42",
					"maxclass" : "panel",
					"mode" : 0,
					"numinlets" : 1,
					"numoutlets" : 0,
					"patching_rect" : [ 169.16668701171875, 31.5, 150.0, 272.0 ],
					"proportion" : 0.5,
					"rounded" : 25
				}

			}
, 			{
				"box" : 				{
					"bgcolor" : [ 0.2, 0.2, 0.2, 0.0 ],
					"id" : "obj-28",
					"ignoreclick" : 1,
					"maxclass" : "led",
					"numinlets" : 1,
					"numoutlets" : 1,
					"oncolor" : [ 0.886274509803922, 0.337254901960784, 0.337254901960784, 0.71 ],
					"outlettype" : [ "int" ],
					"parameter_enable" : 0,
					"patching_rect" : [ 82.0, 181.67364501953125, 17.0, 17.0 ],
					"thickness" : 100.0
				}

			}
, 			{
				"box" : 				{
					"fontname" : "Avenir Next Regular",
					"fontsize" : 11.0,
					"id" : "obj-27",
					"maxclass" : "comment",
					"numinlets" : 1,
					"numoutlets" : 0,
					"patching_rect" : [ 69.5, 112.0, 42.0, 22.0 ],
					"text" : "SPEED",
					"textjustification" : 1
				}

			}
, 			{
				"box" : 				{
					"fontname" : "Avenir Book",
					"fontsize" : 20.0,
					"id" : "obj-25",
					"maxclass" : "comment",
					"numinlets" : 1,
					"numoutlets" : 0,
					"patching_rect" : [ 53.0, 253.0, 75.0, 34.0 ],
					"text" : "phaser",
					"textjustification" : 1
				}

			}
, 			{
				"box" : 				{
					"id" : "obj-23",
					"maxclass" : "toggle",
					"numinlets" : 1,
					"numoutlets" : 1,
					"outlettype" : [ "int" ],
					"parameter_enable" : 0,
					"patching_rect" : [ 75.5, 317.5, 20.0, 20.0 ]
				}

			}
, 			{
				"box" : 				{
					"bgcolor" : [ 0.847058823529412, 0.843137254901961, 0.843137254901961, 0.0 ],
					"id" : "obj-31",
					"maxclass" : "led",
					"numinlets" : 1,
					"numoutlets" : 1,
					"offcolor" : [ 0.458823529411765, 0.458823529411765, 0.458823529411765, 0.5 ],
					"oncolor" : [ 0.694117647058824, 0.694117647058824, 0.694117647058824, 1.0 ],
					"outlettype" : [ "int" ],
					"parameter_enable" : 0,
					"patching_rect" : [ 69.5, 203.5, 40.0, 40.0 ],
					"thickness" : 100.0
				}

			}
, 			{
				"box" : 				{
					"fontface" : 0,
					"fontname" : "Avenir Next Condensed Heavy",
					"fontsize" : 20.0,
					"id" : "obj-18",
					"maxclass" : "comment",
					"numinlets" : 1,
					"numoutlets" : 0,
					"patching_rect" : [ 49.5, 140.67364501953125, 82.0, 34.0 ],
					"text" : "STOVALL",
					"textjustification" : 1
				}

			}
, 			{
				"box" : 				{
					"angle" : 270.0,
					"bgcolor" : [ 0.996078431372549, 0.996078431372549, 0.996078431372549, 0.0 ],
					"border" : 3,
					"bordercolor" : [ 0.0, 0.0, 0.0, 1.0 ],
					"id" : "obj-22",
					"maxclass" : "panel",
					"mode" : 0,
					"numinlets" : 1,
					"numoutlets" : 0,
					"patching_rect" : [ 47.9000244140625, 139.0999755859375, 85.199996948242188, 36.573657989501953 ],
					"proportion" : 0.5
				}

			}
, 			{
				"box" : 				{
					"bgcolor" : [ 0.2, 0.2, 0.2, 0.0 ],
					"id" : "obj-21",
					"ignoreclick" : 1,
					"maxclass" : "number",
					"numinlets" : 1,
					"numoutlets" : 2,
					"outlettype" : [ "", "bang" ],
					"parameter_enable" : 0,
					"patching_rect" : [ 80.5, 88.5, 50.0, 22.0 ],
					"triangle" : 0
				}

			}
, 			{
				"box" : 				{
					"bgcolor" : [ 0.235294117647059, 0.215686274509804, 0.215686274509804, 0.0 ],
					"id" : "obj-15",
					"maxclass" : "dial",
					"mode" : 4,
					"needlecolor" : [ 0.996078431372549, 0.996078431372549, 0.996078431372549, 1.0 ],
					"numinlets" : 1,
					"numoutlets" : 1,
					"outlettype" : [ "float" ],
					"outlinecolor" : [ 0.0, 0.0, 0.0, 1.0 ],
					"parameter_enable" : 0,
					"patching_rect" : [ 57.52099609375, 48.600006103515625, 65.958038330078125, 65.958038330078125 ],
					"thickness" : 40.0
				}

			}
, 			{
				"box" : 				{
					"angle" : 270.0,
					"bgcolor" : [ 0.0, 0.0, 0.0, 1.0 ],
					"id" : "obj-19",
					"maxclass" : "panel",
					"mode" : 0,
					"numinlets" : 1,
					"numoutlets" : 0,
					"patching_rect" : [ 57.52099609375, 48.600006103515625, 65.958061218261719, 64.400001525878906 ],
					"proportion" : 0.5,
					"shape" : 1
				}

			}
, 			{
				"box" : 				{
					"angle" : 270.0,
					"bgcolor" : [ 0.90441358089447, 0.424996435642242, 0.234811812639236, 1.0 ],
					"id" : "obj-14",
					"maxclass" : "panel",
					"mode" : 0,
					"numinlets" : 1,
					"numoutlets" : 0,
					"patching_rect" : [ 18.0, 31.5, 145.0, 272.0 ],
					"proportion" : 0.5,
					"rounded" : 25
				}

			}
, 			{
				"box" : 				{
					"id" : "obj-2",
					"maxclass" : "panel",
					"numinlets" : 1,
					"numoutlets" : 0,
					"patching_rect" : [ 38.833324909210205, 402.0999755859375, 714.66668701171875, 199.343292236328125 ]
				}

			}
, 			{
				"box" : 				{
					"angle" : 270.0,
					"border" : 33,
					"bordercolor" : [ 0.0, 0.0, 0.0, 1.0 ],
					"grad1" : [ 0.301961, 0.301961, 0.301961, 0.0 ],
					"grad2" : [ 0.2, 0.2, 0.2, 0.21 ],
					"id" : "obj-58",
					"maxclass" : "panel",
					"mode" : 1,
					"numinlets" : 1,
					"numoutlets" : 0,
					"patching_rect" : [ 8.166576862335205, 369.144943237304688, 776.00018310546875, 283.333343505859375 ],
					"proportion" : 0.5,
					"rounded" : 37
				}

			}
 ],
		"lines" : [ 			{
				"patchline" : 				{
					"destination" : [ "obj-21", 0 ],
					"source" : [ "obj-15", 0 ]
				}

			}
, 			{
				"patchline" : 				{
					"destination" : [ "obj-23", 0 ],
					"order" : 1,
					"source" : [ "obj-31", 0 ]
				}

			}
, 			{
				"patchline" : 				{
					"destination" : [ "obj-28", 0 ],
					"order" : 0,
					"source" : [ "obj-31", 0 ]
				}

			}
, 			{
				"patchline" : 				{
					"destination" : [ "obj-32", 0 ],
					"order" : 0,
					"source" : [ "obj-36", 0 ]
				}

			}
, 			{
				"patchline" : 				{
					"destination" : [ "obj-35", 0 ],
					"order" : 1,
					"source" : [ "obj-36", 0 ]
				}

			}
 ],
		"dependency_cache" : [  ],
		"autosave" : 0
	}

}
