{
	"patcher" : 	{
		"fileversion" : 1,
		"appversion" : 		{
			"major" : 8,
			"minor" : 1,
			"revision" : 10,
			"architecture" : "x64",
			"modernui" : 1
		}
,
		"classnamespace" : "box",
		"rect" : [ 34.0, 56.0, 939.0, 343.0 ],
		"bglocked" : 0,
		"openinpresentation" : 1,
		"default_fontsize" : 12.0,
		"default_fontface" : 0,
		"default_fontname" : "Arial",
		"gridonopen" : 1,
		"gridsize" : [ 15.0, 15.0 ],
		"gridsnaponopen" : 1,
		"objectsnaponopen" : 1,
		"statusbarvisible" : 2,
		"toolbarvisible" : 0,
		"lefttoolbarpinned" : 0,
		"toptoolbarpinned" : 0,
		"righttoolbarpinned" : 0,
		"bottomtoolbarpinned" : 0,
		"toolbars_unpinned_last_save" : 0,
		"tallnewobj" : 0,
		"boxanimatetime" : 200,
		"enablehscroll" : 0,
		"enablevscroll" : 0,
		"devicewidth" : 0.0,
		"description" : "",
		"digest" : "",
		"tags" : "",
		"style" : "",
		"subpatcher_template" : "",
		"assistshowspatchername" : 0,
		"title" : "Mode Calculator v1.0",
		"boxes" : [ 			{
				"box" : 				{
					"fontsize" : 7.0,
					"id" : "obj-10",
					"maxclass" : "comment",
					"numinlets" : 1,
					"numoutlets" : 0,
					"patching_rect" : [ 763.396300999999994, 819.0, 73.0, 14.0 ],
					"presentation" : 1,
					"presentation_rect" : [ 474.49633799999998, 265.5, 73.0, 14.0 ],
					"text" : "9/16/2018"
				}

			}
, 			{
				"box" : 				{
					"fontsize" : 9.0,
					"id" : "obj-4",
					"maxclass" : "comment",
					"numinlets" : 1,
					"numoutlets" : 0,
					"patching_rect" : [ 683.0, 819.0, 80.0, 17.0 ],
					"presentation" : 1,
					"presentation_rect" : [ 414.329651000000013, 263.5, 80.0, 17.0 ],
					"text" : "by josh stovall"
				}

			}
, 			{
				"box" : 				{
					"fontface" : 1,
					"fontsize" : 10.0,
					"id" : "obj-3",
					"maxclass" : "comment",
					"numinlets" : 1,
					"numoutlets" : 0,
					"patching_rect" : [ 683.0, 803.0, 136.0, 18.0 ],
					"presentation" : 1,
					"presentation_rect" : [ 410.329651000000013, 252.0, 136.0, 18.0 ],
					"text" : "Mode Calculator v1.0"
				}

			}
, 			{
				"box" : 				{
					"fontname" : "Arial",
					"fontsize" : 13.0,
					"id" : "obj-358",
					"maxclass" : "number",
					"numinlets" : 1,
					"numoutlets" : 2,
					"outlettype" : [ "", "bang" ],
					"parameter_enable" : 0,
					"patching_rect" : [ 234.100112999999993, 306.93313599999999, 53.0, 23.0 ]
				}

			}
, 			{
				"box" : 				{
					"id" : "obj-357",
					"increment" : -1.0,
					"maxclass" : "incdec",
					"numinlets" : 1,
					"numoutlets" : 1,
					"outlettype" : [ "float" ],
					"parameter_enable" : 0,
					"patching_rect" : [ 98.433441000000002, 230.333344000000011, 20.0, 24.0 ],
					"presentation" : 1,
					"presentation_rect" : [ 519.329651000000013, 36.499966000000001, 20.0, 24.0 ]
				}

			}
, 			{
				"box" : 				{
					"id" : "obj-352",
					"maxclass" : "dial",
					"numinlets" : 1,
					"numoutlets" : 1,
					"outlettype" : [ "float" ],
					"parameter_enable" : 0,
					"patching_rect" : [ 152.333344000000011, 247.266479000000004, 40.0, 40.0 ],
					"size" : 12.0
				}

			}
, 			{
				"box" : 				{
					"fontname" : "Arial",
					"fontsize" : 13.0,
					"id" : "obj-338",
					"maxclass" : "number",
					"numinlets" : 1,
					"numoutlets" : 2,
					"outlettype" : [ "", "bang" ],
					"parameter_enable" : 0,
					"patching_rect" : [ 205.433440999999988, 264.266479000000004, 53.0, 23.0 ]
				}

			}
, 			{
				"box" : 				{
					"id" : "obj-327",
					"maxclass" : "newobj",
					"numinlets" : 13,
					"numoutlets" : 13,
					"outlettype" : [ "bang", "bang", "bang", "bang", "bang", "bang", "bang", "bang", "bang", "bang", "bang", "bang", "" ],
					"patching_rect" : [ 172.333344000000011, 404.799927000000025, 158.0, 22.0 ],
					"text" : "sel 0 1 2 3 4 5 6 7 8 9 10 11"
				}

			}
, 			{
				"box" : 				{
					"id" : "obj-326",
					"maxclass" : "newobj",
					"numinlets" : 1,
					"numoutlets" : 1,
					"outlettype" : [ "bang" ],
					"patching_rect" : [ 147.833344000000011, 297.333252000000016, 60.0, 22.0 ],
					"text" : "loadbang"
				}

			}
, 			{
				"box" : 				{
					"id" : "obj-325",
					"maxclass" : "message",
					"numinlets" : 2,
					"numoutlets" : 1,
					"outlettype" : [ "" ],
					"patching_rect" : [ 147.833344000000011, 325.333252000000016, 29.5, 22.0 ],
					"text" : "5"
				}

			}
, 			{
				"box" : 				{
					"fontface" : 1,
					"fontsize" : 14.0,
					"id" : "obj-323",
					"items" : [ "Modes", "of", "B", ",", "Modes", "of", "E", ",", "Modes", "of", "A", ",", "Modes", "of", "D", ",", "Modes", "of", "G", ",", "Modes", "of", "C", ",", "Modes", "of", "F", ",", "Modes", "of", "Bb", ",", "Modes", "of", "Eb", ",", "Modes", "of", "Ab", ",", "Modes", "of", "Db", ",", "Modes", "of", "Gb" ],
					"maxclass" : "umenu",
					"numinlets" : 1,
					"numoutlets" : 3,
					"outlettype" : [ "int", "", "" ],
					"parameter_enable" : 0,
					"patching_rect" : [ 180.433440999999988, 336.334015000000022, 118.0, 24.0 ],
					"presentation" : 1,
					"presentation_rect" : [ 396.329651000000013, 36.499966000000001, 121.0, 24.0 ]
				}

			}
, 			{
				"box" : 				{
					"fontname" : "Arial",
					"fontsize" : 13.0,
					"id" : "obj-324",
					"maxclass" : "number",
					"numinlets" : 1,
					"numoutlets" : 2,
					"outlettype" : [ "", "bang" ],
					"parameter_enable" : 0,
					"patching_rect" : [ 199.433440999999988, 367.599823000000015, 53.0, 23.0 ]
				}

			}
, 			{
				"box" : 				{
					"id" : "obj-310",
					"maxclass" : "message",
					"numinlets" : 2,
					"numoutlets" : 1,
					"outlettype" : [ "" ],
					"patching_rect" : [ 332.333344000000011, 540.59997599999997, 79.0, 22.0 ],
					"text" : "Modes of Gb"
				}

			}
, 			{
				"box" : 				{
					"id" : "obj-311",
					"maxclass" : "message",
					"numinlets" : 2,
					"numoutlets" : 1,
					"outlettype" : [ "" ],
					"patching_rect" : [ 1152.396240000000034, 540.59997599999997, 59.0, 22.0 ],
					"text" : "pic #.png"
				}

			}
, 			{
				"box" : 				{
					"id" : "obj-312",
					"maxclass" : "message",
					"numinlets" : 2,
					"numoutlets" : 1,
					"outlettype" : [ "" ],
					"patching_rect" : [ 1032.729736000000003, 540.59997599999997, 73.0, 22.0 ],
					"text" : "pic ###.png"
				}

			}
, 			{
				"box" : 				{
					"id" : "obj-313",
					"maxclass" : "message",
					"numinlets" : 2,
					"numoutlets" : 1,
					"outlettype" : [ "" ],
					"patching_rect" : [ 913.063048999999978, 540.59997599999997, 86.0, 22.0 ],
					"text" : "pic #####.png"
				}

			}
, 			{
				"box" : 				{
					"id" : "obj-314",
					"maxclass" : "message",
					"numinlets" : 2,
					"numoutlets" : 1,
					"outlettype" : [ "" ],
					"patching_rect" : [ 793.396300999999994, 540.59997599999997, 86.0, 22.0 ],
					"text" : "pic bbbbb.png"
				}

			}
, 			{
				"box" : 				{
					"id" : "obj-315",
					"maxclass" : "message",
					"numinlets" : 2,
					"numoutlets" : 1,
					"outlettype" : [ "" ],
					"patching_rect" : [ 673.729796999999962, 540.59997599999997, 66.0, 22.0 ],
					"text" : "pic ##.png"
				}

			}
, 			{
				"box" : 				{
					"id" : "obj-316",
					"maxclass" : "message",
					"numinlets" : 2,
					"numoutlets" : 1,
					"outlettype" : [ "" ],
					"patching_rect" : [ 554.063293000000044, 540.59997599999997, 79.0, 22.0 ],
					"text" : "pic ####.png"
				}

			}
, 			{
				"box" : 				{
					"id" : "obj-317",
					"maxclass" : "message",
					"numinlets" : 2,
					"numoutlets" : 1,
					"outlettype" : [ "" ],
					"patching_rect" : [ 434.396575999999982, 540.59997599999997, 93.0, 22.0 ],
					"text" : "pic bbbbbb.png"
				}

			}
, 			{
				"box" : 				{
					"id" : "obj-302",
					"maxclass" : "message",
					"numinlets" : 2,
					"numoutlets" : 1,
					"outlettype" : [ "" ],
					"patching_rect" : [ 332.333344000000011, 496.600006000000008, 79.0, 22.0 ],
					"text" : "Modes of Db"
				}

			}
, 			{
				"box" : 				{
					"id" : "obj-303",
					"maxclass" : "message",
					"numinlets" : 2,
					"numoutlets" : 1,
					"outlettype" : [ "" ],
					"patching_rect" : [ 1152.396240000000034, 496.600006000000008, 66.0, 22.0 ],
					"text" : "pic ##.png"
				}

			}
, 			{
				"box" : 				{
					"id" : "obj-304",
					"maxclass" : "message",
					"numinlets" : 2,
					"numoutlets" : 1,
					"outlettype" : [ "" ],
					"patching_rect" : [ 1032.729736000000003, 496.600006000000008, 79.0, 22.0 ],
					"text" : "pic ####.png"
				}

			}
, 			{
				"box" : 				{
					"id" : "obj-305",
					"maxclass" : "message",
					"numinlets" : 2,
					"numoutlets" : 1,
					"outlettype" : [ "" ],
					"patching_rect" : [ 913.063048999999978, 496.600006000000008, 93.0, 22.0 ],
					"text" : "pic bbbbbb.png"
				}

			}
, 			{
				"box" : 				{
					"id" : "obj-306",
					"maxclass" : "message",
					"numinlets" : 2,
					"numoutlets" : 1,
					"outlettype" : [ "" ],
					"patching_rect" : [ 793.396300999999994, 496.600006000000008, 79.0, 22.0 ],
					"text" : "pic bbbb.png"
				}

			}
, 			{
				"box" : 				{
					"id" : "obj-307",
					"maxclass" : "message",
					"numinlets" : 2,
					"numoutlets" : 1,
					"outlettype" : [ "" ],
					"patching_rect" : [ 673.729796999999962, 496.600006000000008, 73.0, 22.0 ],
					"text" : "pic ###.png"
				}

			}
, 			{
				"box" : 				{
					"id" : "obj-308",
					"maxclass" : "message",
					"numinlets" : 2,
					"numoutlets" : 1,
					"outlettype" : [ "" ],
					"patching_rect" : [ 554.063293000000044, 496.600006000000008, 86.0, 22.0 ],
					"text" : "pic #####.png"
				}

			}
, 			{
				"box" : 				{
					"id" : "obj-309",
					"maxclass" : "message",
					"numinlets" : 2,
					"numoutlets" : 1,
					"outlettype" : [ "" ],
					"patching_rect" : [ 434.396575999999982, 496.600006000000008, 86.0, 22.0 ],
					"text" : "pic bbbbb.png"
				}

			}
, 			{
				"box" : 				{
					"id" : "obj-225",
					"maxclass" : "message",
					"numinlets" : 2,
					"numoutlets" : 1,
					"outlettype" : [ "" ],
					"patching_rect" : [ 332.333344000000011, 450.400023999999974, 77.0, 22.0 ],
					"text" : "Modes of Ab"
				}

			}
, 			{
				"box" : 				{
					"id" : "obj-226",
					"maxclass" : "message",
					"numinlets" : 2,
					"numoutlets" : 1,
					"outlettype" : [ "" ],
					"patching_rect" : [ 1152.396240000000034, 450.400023999999974, 73.0, 22.0 ],
					"text" : "pic ###.png"
				}

			}
, 			{
				"box" : 				{
					"id" : "obj-246",
					"maxclass" : "message",
					"numinlets" : 2,
					"numoutlets" : 1,
					"outlettype" : [ "" ],
					"patching_rect" : [ 1032.729736000000003, 450.400023999999974, 86.0, 22.0 ],
					"text" : "pic #####.png"
				}

			}
, 			{
				"box" : 				{
					"id" : "obj-281",
					"maxclass" : "message",
					"numinlets" : 2,
					"numoutlets" : 1,
					"outlettype" : [ "" ],
					"patching_rect" : [ 913.063048999999978, 450.400023999999974, 86.0, 22.0 ],
					"text" : "pic bbbbb.png"
				}

			}
, 			{
				"box" : 				{
					"id" : "obj-286",
					"maxclass" : "message",
					"numinlets" : 2,
					"numoutlets" : 1,
					"outlettype" : [ "" ],
					"patching_rect" : [ 793.396300999999994, 450.400023999999974, 73.0, 22.0 ],
					"text" : "pic bbb.png"
				}

			}
, 			{
				"box" : 				{
					"id" : "obj-295",
					"maxclass" : "message",
					"numinlets" : 2,
					"numoutlets" : 1,
					"outlettype" : [ "" ],
					"patching_rect" : [ 673.729796999999962, 450.400023999999974, 79.0, 22.0 ],
					"text" : "pic ####.png"
				}

			}
, 			{
				"box" : 				{
					"id" : "obj-298",
					"maxclass" : "message",
					"numinlets" : 2,
					"numoutlets" : 1,
					"outlettype" : [ "" ],
					"patching_rect" : [ 554.063293000000044, 450.400023999999974, 93.0, 22.0 ],
					"text" : "pic bbbbbb.png"
				}

			}
, 			{
				"box" : 				{
					"id" : "obj-300",
					"maxclass" : "message",
					"numinlets" : 2,
					"numoutlets" : 1,
					"outlettype" : [ "" ],
					"patching_rect" : [ 434.396575999999982, 450.400023999999974, 79.0, 22.0 ],
					"text" : "pic bbbb.png"
				}

			}
, 			{
				"box" : 				{
					"id" : "obj-217",
					"maxclass" : "message",
					"numinlets" : 2,
					"numoutlets" : 1,
					"outlettype" : [ "" ],
					"patching_rect" : [ 332.333344000000011, 404.799927000000025, 78.0, 22.0 ],
					"text" : "Modes of Eb"
				}

			}
, 			{
				"box" : 				{
					"id" : "obj-218",
					"maxclass" : "message",
					"numinlets" : 2,
					"numoutlets" : 1,
					"outlettype" : [ "" ],
					"patching_rect" : [ 1152.396240000000034, 404.799927000000025, 79.0, 22.0 ],
					"text" : "pic ####.png"
				}

			}
, 			{
				"box" : 				{
					"id" : "obj-219",
					"maxclass" : "message",
					"numinlets" : 2,
					"numoutlets" : 1,
					"outlettype" : [ "" ],
					"patching_rect" : [ 1032.729736000000003, 404.799927000000025, 93.0, 22.0 ],
					"text" : "pic bbbbbb.png"
				}

			}
, 			{
				"box" : 				{
					"id" : "obj-220",
					"maxclass" : "message",
					"numinlets" : 2,
					"numoutlets" : 1,
					"outlettype" : [ "" ],
					"patching_rect" : [ 913.063048999999978, 404.799927000000025, 79.0, 22.0 ],
					"text" : "pic bbbb.png"
				}

			}
, 			{
				"box" : 				{
					"id" : "obj-221",
					"maxclass" : "message",
					"numinlets" : 2,
					"numoutlets" : 1,
					"outlettype" : [ "" ],
					"patching_rect" : [ 793.396300999999994, 404.799927000000025, 66.0, 22.0 ],
					"text" : "pic bb.png"
				}

			}
, 			{
				"box" : 				{
					"id" : "obj-222",
					"maxclass" : "message",
					"numinlets" : 2,
					"numoutlets" : 1,
					"outlettype" : [ "" ],
					"patching_rect" : [ 673.729796999999962, 404.799927000000025, 86.0, 22.0 ],
					"text" : "pic #####.png"
				}

			}
, 			{
				"box" : 				{
					"id" : "obj-223",
					"maxclass" : "message",
					"numinlets" : 2,
					"numoutlets" : 1,
					"outlettype" : [ "" ],
					"patching_rect" : [ 554.063293000000044, 404.799927000000025, 86.0, 22.0 ],
					"text" : "pic bbbbb.png"
				}

			}
, 			{
				"box" : 				{
					"id" : "obj-224",
					"maxclass" : "message",
					"numinlets" : 2,
					"numoutlets" : 1,
					"outlettype" : [ "" ],
					"patching_rect" : [ 434.396575999999982, 404.799927000000025, 73.0, 22.0 ],
					"text" : "pic bbb.png"
				}

			}
, 			{
				"box" : 				{
					"id" : "obj-193",
					"maxclass" : "message",
					"numinlets" : 2,
					"numoutlets" : 1,
					"outlettype" : [ "" ],
					"patching_rect" : [ 332.333344000000011, 364.0, 78.0, 22.0 ],
					"text" : "Modes of Bb"
				}

			}
, 			{
				"box" : 				{
					"id" : "obj-194",
					"maxclass" : "message",
					"numinlets" : 2,
					"numoutlets" : 1,
					"outlettype" : [ "" ],
					"patching_rect" : [ 1152.396240000000034, 364.0, 86.0, 22.0 ],
					"text" : "pic #####.png"
				}

			}
, 			{
				"box" : 				{
					"id" : "obj-195",
					"maxclass" : "message",
					"numinlets" : 2,
					"numoutlets" : 1,
					"outlettype" : [ "" ],
					"patching_rect" : [ 1032.729736000000003, 364.0, 86.0, 22.0 ],
					"text" : "pic bbbbb.png"
				}

			}
, 			{
				"box" : 				{
					"id" : "obj-208",
					"maxclass" : "message",
					"numinlets" : 2,
					"numoutlets" : 1,
					"outlettype" : [ "" ],
					"patching_rect" : [ 913.063048999999978, 364.0, 73.0, 22.0 ],
					"text" : "pic bbb.png"
				}

			}
, 			{
				"box" : 				{
					"id" : "obj-212",
					"maxclass" : "message",
					"numinlets" : 2,
					"numoutlets" : 1,
					"outlettype" : [ "" ],
					"patching_rect" : [ 793.396300999999994, 364.0, 59.0, 22.0 ],
					"text" : "pic b.png"
				}

			}
, 			{
				"box" : 				{
					"id" : "obj-213",
					"maxclass" : "message",
					"numinlets" : 2,
					"numoutlets" : 1,
					"outlettype" : [ "" ],
					"patching_rect" : [ 673.729796999999962, 364.0, 93.0, 22.0 ],
					"text" : "pic bbbbbb.png"
				}

			}
, 			{
				"box" : 				{
					"id" : "obj-214",
					"maxclass" : "message",
					"numinlets" : 2,
					"numoutlets" : 1,
					"outlettype" : [ "" ],
					"patching_rect" : [ 554.063293000000044, 364.0, 79.0, 22.0 ],
					"text" : "pic bbbb.png"
				}

			}
, 			{
				"box" : 				{
					"id" : "obj-215",
					"maxclass" : "message",
					"numinlets" : 2,
					"numoutlets" : 1,
					"outlettype" : [ "" ],
					"patching_rect" : [ 434.396575999999982, 364.0, 66.0, 22.0 ],
					"text" : "pic bb.png"
				}

			}
, 			{
				"box" : 				{
					"id" : "obj-184",
					"maxclass" : "message",
					"numinlets" : 2,
					"numoutlets" : 1,
					"outlettype" : [ "" ],
					"patching_rect" : [ 332.333344000000011, 320.799927000000025, 71.0, 22.0 ],
					"text" : "Modes of F"
				}

			}
, 			{
				"box" : 				{
					"id" : "obj-185",
					"maxclass" : "message",
					"numinlets" : 2,
					"numoutlets" : 1,
					"outlettype" : [ "" ],
					"patching_rect" : [ 1152.396240000000034, 320.799927000000025, 93.0, 22.0 ],
					"text" : "pic bbbbbb.png"
				}

			}
, 			{
				"box" : 				{
					"id" : "obj-186",
					"maxclass" : "message",
					"numinlets" : 2,
					"numoutlets" : 1,
					"outlettype" : [ "" ],
					"patching_rect" : [ 1032.729736000000003, 320.799927000000025, 79.0, 22.0 ],
					"text" : "pic bbbb.png"
				}

			}
, 			{
				"box" : 				{
					"id" : "obj-187",
					"maxclass" : "message",
					"numinlets" : 2,
					"numoutlets" : 1,
					"outlettype" : [ "" ],
					"patching_rect" : [ 913.063048999999978, 320.799927000000025, 66.0, 22.0 ],
					"text" : "pic bb.png"
				}

			}
, 			{
				"box" : 				{
					"id" : "obj-188",
					"maxclass" : "message",
					"numinlets" : 2,
					"numoutlets" : 1,
					"outlettype" : [ "" ],
					"patching_rect" : [ 793.396300999999994, 320.799927000000025, 95.0, 22.0 ],
					"text" : "pic C-Major.png"
				}

			}
, 			{
				"box" : 				{
					"id" : "obj-189",
					"maxclass" : "message",
					"numinlets" : 2,
					"numoutlets" : 1,
					"outlettype" : [ "" ],
					"patching_rect" : [ 673.729796999999962, 320.799927000000025, 86.0, 22.0 ],
					"text" : "pic bbbbb.png"
				}

			}
, 			{
				"box" : 				{
					"id" : "obj-190",
					"maxclass" : "message",
					"numinlets" : 2,
					"numoutlets" : 1,
					"outlettype" : [ "" ],
					"patching_rect" : [ 554.063293000000044, 320.799927000000025, 73.0, 22.0 ],
					"text" : "pic bbb.png"
				}

			}
, 			{
				"box" : 				{
					"id" : "obj-191",
					"maxclass" : "message",
					"numinlets" : 2,
					"numoutlets" : 1,
					"outlettype" : [ "" ],
					"patching_rect" : [ 434.396575999999982, 320.799927000000025, 59.0, 22.0 ],
					"text" : "pic b.png"
				}

			}
, 			{
				"box" : 				{
					"id" : "obj-176",
					"maxclass" : "message",
					"numinlets" : 2,
					"numoutlets" : 1,
					"outlettype" : [ "" ],
					"patching_rect" : [ 332.333344000000011, 48.999988999999999, 71.0, 22.0 ],
					"text" : "Modes of B"
				}

			}
, 			{
				"box" : 				{
					"id" : "obj-177",
					"maxclass" : "message",
					"numinlets" : 2,
					"numoutlets" : 1,
					"outlettype" : [ "" ],
					"patching_rect" : [ 1152.396240000000034, 48.999988999999999, 95.0, 22.0 ],
					"text" : "pic C-Major.png"
				}

			}
, 			{
				"box" : 				{
					"id" : "obj-178",
					"maxclass" : "message",
					"numinlets" : 2,
					"numoutlets" : 1,
					"outlettype" : [ "" ],
					"patching_rect" : [ 1032.729736000000003, 48.999988999999999, 66.0, 22.0 ],
					"text" : "pic ##.png"
				}

			}
, 			{
				"box" : 				{
					"id" : "obj-179",
					"maxclass" : "message",
					"numinlets" : 2,
					"numoutlets" : 1,
					"outlettype" : [ "" ],
					"patching_rect" : [ 913.063048999999978, 48.999988999999999, 79.0, 22.0 ],
					"text" : "pic ####.png"
				}

			}
, 			{
				"box" : 				{
					"id" : "obj-180",
					"maxclass" : "message",
					"numinlets" : 2,
					"numoutlets" : 1,
					"outlettype" : [ "" ],
					"patching_rect" : [ 793.396300999999994, 48.999988999999999, 93.0, 22.0 ],
					"text" : "pic ######.png"
				}

			}
, 			{
				"box" : 				{
					"id" : "obj-181",
					"maxclass" : "message",
					"numinlets" : 2,
					"numoutlets" : 1,
					"outlettype" : [ "" ],
					"patching_rect" : [ 673.729796999999962, 48.999988999999999, 59.0, 22.0 ],
					"text" : "pic #.png"
				}

			}
, 			{
				"box" : 				{
					"id" : "obj-182",
					"maxclass" : "message",
					"numinlets" : 2,
					"numoutlets" : 1,
					"outlettype" : [ "" ],
					"patching_rect" : [ 554.063293000000044, 48.999988999999999, 73.0, 22.0 ],
					"text" : "pic ###.png"
				}

			}
, 			{
				"box" : 				{
					"id" : "obj-183",
					"maxclass" : "message",
					"numinlets" : 2,
					"numoutlets" : 1,
					"outlettype" : [ "" ],
					"patching_rect" : [ 434.396575999999982, 48.999988999999999, 86.0, 22.0 ],
					"text" : "pic #####.png"
				}

			}
, 			{
				"box" : 				{
					"id" : "obj-167",
					"maxclass" : "message",
					"numinlets" : 2,
					"numoutlets" : 1,
					"outlettype" : [ "" ],
					"patching_rect" : [ 332.333344000000011, 95.399947999999995, 71.0, 22.0 ],
					"text" : "Modes of E"
				}

			}
, 			{
				"box" : 				{
					"id" : "obj-168",
					"maxclass" : "message",
					"numinlets" : 2,
					"numoutlets" : 1,
					"outlettype" : [ "" ],
					"patching_rect" : [ 1152.396240000000034, 95.399947999999995, 59.0, 22.0 ],
					"text" : "pic b.png"
				}

			}
, 			{
				"box" : 				{
					"id" : "obj-169",
					"maxclass" : "message",
					"numinlets" : 2,
					"numoutlets" : 1,
					"outlettype" : [ "" ],
					"patching_rect" : [ 1032.729736000000003, 95.399947999999995, 59.0, 22.0 ],
					"text" : "pic #.png"
				}

			}
, 			{
				"box" : 				{
					"id" : "obj-170",
					"maxclass" : "message",
					"numinlets" : 2,
					"numoutlets" : 1,
					"outlettype" : [ "" ],
					"patching_rect" : [ 913.063048999999978, 95.399947999999995, 73.0, 22.0 ],
					"text" : "pic ###.png"
				}

			}
, 			{
				"box" : 				{
					"id" : "obj-172",
					"maxclass" : "message",
					"numinlets" : 2,
					"numoutlets" : 1,
					"outlettype" : [ "" ],
					"patching_rect" : [ 793.396300999999994, 95.399947999999995, 86.0, 22.0 ],
					"text" : "pic #####.png"
				}

			}
, 			{
				"box" : 				{
					"id" : "obj-173",
					"maxclass" : "message",
					"numinlets" : 2,
					"numoutlets" : 1,
					"outlettype" : [ "" ],
					"patching_rect" : [ 673.729796999999962, 95.399947999999995, 95.0, 22.0 ],
					"text" : "pic C-Major.png"
				}

			}
, 			{
				"box" : 				{
					"id" : "obj-174",
					"maxclass" : "message",
					"numinlets" : 2,
					"numoutlets" : 1,
					"outlettype" : [ "" ],
					"patching_rect" : [ 554.063293000000044, 95.399947999999995, 66.0, 22.0 ],
					"text" : "pic ##.png"
				}

			}
, 			{
				"box" : 				{
					"id" : "obj-175",
					"maxclass" : "message",
					"numinlets" : 2,
					"numoutlets" : 1,
					"outlettype" : [ "" ],
					"patching_rect" : [ 434.396575999999982, 95.399947999999995, 79.0, 22.0 ],
					"text" : "pic ####.png"
				}

			}
, 			{
				"box" : 				{
					"id" : "obj-159",
					"maxclass" : "message",
					"numinlets" : 2,
					"numoutlets" : 1,
					"outlettype" : [ "" ],
					"patching_rect" : [ 332.333344000000011, 142.199936000000008, 71.0, 22.0 ],
					"text" : "Modes of A"
				}

			}
, 			{
				"box" : 				{
					"id" : "obj-160",
					"maxclass" : "message",
					"numinlets" : 2,
					"numoutlets" : 1,
					"outlettype" : [ "" ],
					"patching_rect" : [ 1152.396240000000034, 142.199936000000008, 66.0, 22.0 ],
					"text" : "pic bb.png"
				}

			}
, 			{
				"box" : 				{
					"id" : "obj-161",
					"maxclass" : "message",
					"numinlets" : 2,
					"numoutlets" : 1,
					"outlettype" : [ "" ],
					"patching_rect" : [ 1032.729736000000003, 142.199936000000008, 95.0, 22.0 ],
					"text" : "pic C-Major.png"
				}

			}
, 			{
				"box" : 				{
					"id" : "obj-162",
					"maxclass" : "message",
					"numinlets" : 2,
					"numoutlets" : 1,
					"outlettype" : [ "" ],
					"patching_rect" : [ 913.063048999999978, 142.199936000000008, 66.0, 22.0 ],
					"text" : "pic ##.png"
				}

			}
, 			{
				"box" : 				{
					"id" : "obj-163",
					"maxclass" : "message",
					"numinlets" : 2,
					"numoutlets" : 1,
					"outlettype" : [ "" ],
					"patching_rect" : [ 793.396300999999994, 142.199936000000008, 79.0, 22.0 ],
					"text" : "pic ####.png"
				}

			}
, 			{
				"box" : 				{
					"id" : "obj-164",
					"maxclass" : "message",
					"numinlets" : 2,
					"numoutlets" : 1,
					"outlettype" : [ "" ],
					"patching_rect" : [ 673.729796999999962, 142.199936000000008, 59.0, 22.0 ],
					"text" : "pic b.png"
				}

			}
, 			{
				"box" : 				{
					"id" : "obj-165",
					"maxclass" : "message",
					"numinlets" : 2,
					"numoutlets" : 1,
					"outlettype" : [ "" ],
					"patching_rect" : [ 554.063293000000044, 142.199936000000008, 59.0, 22.0 ],
					"text" : "pic #.png"
				}

			}
, 			{
				"box" : 				{
					"id" : "obj-166",
					"maxclass" : "message",
					"numinlets" : 2,
					"numoutlets" : 1,
					"outlettype" : [ "" ],
					"patching_rect" : [ 434.396575999999982, 142.199936000000008, 73.0, 22.0 ],
					"text" : "pic ###.png"
				}

			}
, 			{
				"box" : 				{
					"id" : "obj-151",
					"maxclass" : "message",
					"numinlets" : 2,
					"numoutlets" : 1,
					"outlettype" : [ "" ],
					"patching_rect" : [ 332.333344000000011, 188.799972999999994, 72.0, 22.0 ],
					"text" : "Modes of D"
				}

			}
, 			{
				"box" : 				{
					"id" : "obj-152",
					"maxclass" : "message",
					"numinlets" : 2,
					"numoutlets" : 1,
					"outlettype" : [ "" ],
					"patching_rect" : [ 1152.396240000000034, 188.799972999999994, 73.0, 22.0 ],
					"text" : "pic bbb.png"
				}

			}
, 			{
				"box" : 				{
					"id" : "obj-153",
					"maxclass" : "message",
					"numinlets" : 2,
					"numoutlets" : 1,
					"outlettype" : [ "" ],
					"patching_rect" : [ 1032.729736000000003, 188.799972999999994, 59.0, 22.0 ],
					"text" : "pic b.png"
				}

			}
, 			{
				"box" : 				{
					"id" : "obj-154",
					"maxclass" : "message",
					"numinlets" : 2,
					"numoutlets" : 1,
					"outlettype" : [ "" ],
					"patching_rect" : [ 913.063048999999978, 188.799972999999994, 59.0, 22.0 ],
					"text" : "pic #.png"
				}

			}
, 			{
				"box" : 				{
					"id" : "obj-155",
					"maxclass" : "message",
					"numinlets" : 2,
					"numoutlets" : 1,
					"outlettype" : [ "" ],
					"patching_rect" : [ 793.396300999999994, 188.799972999999994, 73.0, 22.0 ],
					"text" : "pic ###.png"
				}

			}
, 			{
				"box" : 				{
					"id" : "obj-156",
					"maxclass" : "message",
					"numinlets" : 2,
					"numoutlets" : 1,
					"outlettype" : [ "" ],
					"patching_rect" : [ 673.729796999999962, 188.799972999999994, 66.0, 22.0 ],
					"text" : "pic bb.png"
				}

			}
, 			{
				"box" : 				{
					"id" : "obj-157",
					"maxclass" : "message",
					"numinlets" : 2,
					"numoutlets" : 1,
					"outlettype" : [ "" ],
					"patching_rect" : [ 554.063293000000044, 188.799972999999994, 95.0, 22.0 ],
					"text" : "pic C-Major.png"
				}

			}
, 			{
				"box" : 				{
					"id" : "obj-158",
					"maxclass" : "message",
					"numinlets" : 2,
					"numoutlets" : 1,
					"outlettype" : [ "" ],
					"patching_rect" : [ 434.396575999999982, 188.799972999999994, 66.0, 22.0 ],
					"text" : "pic ##.png"
				}

			}
, 			{
				"box" : 				{
					"id" : "obj-125",
					"maxclass" : "message",
					"numinlets" : 2,
					"numoutlets" : 1,
					"outlettype" : [ "" ],
					"patching_rect" : [ 332.333344000000011, 236.59996000000001, 91.299660000000003, 22.0 ],
					"text" : "Modes of G"
				}

			}
, 			{
				"box" : 				{
					"id" : "obj-127",
					"maxclass" : "message",
					"numinlets" : 2,
					"numoutlets" : 1,
					"outlettype" : [ "" ],
					"patching_rect" : [ 1152.396240000000034, 236.59996000000001, 79.0, 22.0 ],
					"text" : "pic bbbb.png"
				}

			}
, 			{
				"box" : 				{
					"id" : "obj-131",
					"maxclass" : "message",
					"numinlets" : 2,
					"numoutlets" : 1,
					"outlettype" : [ "" ],
					"patching_rect" : [ 1032.729736000000003, 236.59996000000001, 66.0, 22.0 ],
					"text" : "pic bb.png"
				}

			}
, 			{
				"box" : 				{
					"id" : "obj-132",
					"maxclass" : "message",
					"numinlets" : 2,
					"numoutlets" : 1,
					"outlettype" : [ "" ],
					"patching_rect" : [ 913.063048999999978, 236.59996000000001, 95.0, 22.0 ],
					"text" : "pic C-Major.png"
				}

			}
, 			{
				"box" : 				{
					"id" : "obj-133",
					"maxclass" : "message",
					"numinlets" : 2,
					"numoutlets" : 1,
					"outlettype" : [ "" ],
					"patching_rect" : [ 793.396300999999994, 236.59996000000001, 66.0, 22.0 ],
					"text" : "pic ##.png"
				}

			}
, 			{
				"box" : 				{
					"id" : "obj-135",
					"maxclass" : "message",
					"numinlets" : 2,
					"numoutlets" : 1,
					"outlettype" : [ "" ],
					"patching_rect" : [ 673.729796999999962, 236.59996000000001, 73.0, 22.0 ],
					"text" : "pic bbb.png"
				}

			}
, 			{
				"box" : 				{
					"id" : "obj-143",
					"maxclass" : "message",
					"numinlets" : 2,
					"numoutlets" : 1,
					"outlettype" : [ "" ],
					"patching_rect" : [ 554.063293000000044, 236.59996000000001, 59.0, 22.0 ],
					"text" : "pic b.png"
				}

			}
, 			{
				"box" : 				{
					"id" : "obj-150",
					"maxclass" : "message",
					"numinlets" : 2,
					"numoutlets" : 1,
					"outlettype" : [ "" ],
					"patching_rect" : [ 434.396575999999982, 236.59996000000001, 59.0, 22.0 ],
					"text" : "pic #.png"
				}

			}
, 			{
				"box" : 				{
					"id" : "obj-124",
					"maxclass" : "message",
					"numinlets" : 2,
					"numoutlets" : 1,
					"outlettype" : [ "" ],
					"patching_rect" : [ 332.333344000000011, 279.599976000000026, 91.299660000000003, 22.0 ],
					"text" : "Modes of C"
				}

			}
, 			{
				"box" : 				{
					"id" : "obj-62",
					"maxclass" : "message",
					"numinlets" : 2,
					"numoutlets" : 1,
					"outlettype" : [ "" ],
					"patching_rect" : [ 1152.396240000000034, 279.599976000000026, 86.0, 22.0 ],
					"text" : "pic bbbbb.png"
				}

			}
, 			{
				"box" : 				{
					"id" : "obj-57",
					"maxclass" : "message",
					"numinlets" : 2,
					"numoutlets" : 1,
					"outlettype" : [ "" ],
					"patching_rect" : [ 1032.729736000000003, 279.599976000000026, 73.0, 22.0 ],
					"text" : "pic bbb.png"
				}

			}
, 			{
				"box" : 				{
					"id" : "obj-55",
					"maxclass" : "message",
					"numinlets" : 2,
					"numoutlets" : 1,
					"outlettype" : [ "" ],
					"patching_rect" : [ 913.063048999999978, 279.599976000000026, 59.0, 22.0 ],
					"text" : "pic b.png"
				}

			}
, 			{
				"box" : 				{
					"id" : "obj-54",
					"maxclass" : "message",
					"numinlets" : 2,
					"numoutlets" : 1,
					"outlettype" : [ "" ],
					"patching_rect" : [ 793.396300999999994, 279.599976000000026, 59.0, 22.0 ],
					"text" : "pic #.png"
				}

			}
, 			{
				"box" : 				{
					"id" : "obj-53",
					"maxclass" : "message",
					"numinlets" : 2,
					"numoutlets" : 1,
					"outlettype" : [ "" ],
					"patching_rect" : [ 673.729796999999962, 279.599976000000026, 79.0, 22.0 ],
					"text" : "pic bbbb.png"
				}

			}
, 			{
				"box" : 				{
					"id" : "obj-50",
					"maxclass" : "message",
					"numinlets" : 2,
					"numoutlets" : 1,
					"outlettype" : [ "" ],
					"patching_rect" : [ 554.063293000000044, 279.599976000000026, 100.0, 22.0 ],
					"text" : "pic bb.png"
				}

			}
, 			{
				"box" : 				{
					"fontsize" : 15.0,
					"id" : "obj-34",
					"maxclass" : "comment",
					"numinlets" : 1,
					"numoutlets" : 0,
					"patching_rect" : [ 1151.329590000000053, 601.333312999999976, 100.0, 23.0 ],
					"presentation" : 1,
					"presentation_rect" : [ 773.329590000000053, 101.333313000000004, 100.0, 23.0 ],
					"text" : "Locrian",
					"textjustification" : 1
				}

			}
, 			{
				"box" : 				{
					"autofit" : 1,
					"forceaspect" : 1,
					"id" : "obj-36",
					"maxclass" : "fpic",
					"numinlets" : 1,
					"numoutlets" : 1,
					"outlettype" : [ "jit_matrix" ],
					"patching_rect" : [ 1151.329590000000053, 628.0, 100.0, 100.0 ],
					"pic" : "##.png",
					"presentation" : 1,
					"presentation_rect" : [ 773.329590000000053, 128.0, 100.0, 100.0 ]
				}

			}
, 			{
				"box" : 				{
					"fontsize" : 15.0,
					"id" : "obj-32",
					"maxclass" : "comment",
					"numinlets" : 1,
					"numoutlets" : 0,
					"patching_rect" : [ 1031.663086000000021, 601.333312999999976, 100.0, 23.0 ],
					"presentation" : 1,
					"presentation_rect" : [ 653.663086000000021, 101.333313000000004, 100.0, 23.0 ],
					"text" : "Aeolian",
					"textjustification" : 1
				}

			}
, 			{
				"box" : 				{
					"autofit" : 1,
					"forceaspect" : 1,
					"id" : "obj-33",
					"maxclass" : "fpic",
					"numinlets" : 1,
					"numoutlets" : 1,
					"outlettype" : [ "jit_matrix" ],
					"patching_rect" : [ 1031.663086000000021, 628.0, 100.0, 100.0 ],
					"pic" : "####.png",
					"presentation" : 1,
					"presentation_rect" : [ 653.663086000000021, 128.0, 100.0, 100.0 ]
				}

			}
, 			{
				"box" : 				{
					"fontsize" : 15.0,
					"id" : "obj-27",
					"maxclass" : "comment",
					"numinlets" : 1,
					"numoutlets" : 0,
					"patching_rect" : [ 911.996398999999997, 601.333312999999976, 100.0, 23.0 ],
					"presentation" : 1,
					"presentation_rect" : [ 533.996398999999997, 101.333313000000004, 100.0, 23.0 ],
					"text" : "Mixolydian",
					"textjustification" : 1
				}

			}
, 			{
				"box" : 				{
					"autofit" : 1,
					"forceaspect" : 1,
					"id" : "obj-29",
					"maxclass" : "fpic",
					"numinlets" : 1,
					"numoutlets" : 1,
					"outlettype" : [ "jit_matrix" ],
					"patching_rect" : [ 911.996398999999997, 628.0, 100.0, 100.0 ],
					"pic" : "bbbbbb.png",
					"presentation" : 1,
					"presentation_rect" : [ 533.996398999999997, 128.0, 100.0, 100.0 ]
				}

			}
, 			{
				"box" : 				{
					"fontsize" : 15.0,
					"id" : "obj-22",
					"maxclass" : "comment",
					"numinlets" : 1,
					"numoutlets" : 0,
					"patching_rect" : [ 792.329651000000013, 601.333312999999976, 100.0, 23.0 ],
					"presentation" : 1,
					"presentation_rect" : [ 414.329651000000013, 101.333313000000004, 100.0, 23.0 ],
					"text" : "Lydian",
					"textjustification" : 1
				}

			}
, 			{
				"box" : 				{
					"autofit" : 1,
					"forceaspect" : 1,
					"id" : "obj-25",
					"maxclass" : "fpic",
					"numinlets" : 1,
					"numoutlets" : 1,
					"outlettype" : [ "jit_matrix" ],
					"patching_rect" : [ 792.329651000000013, 628.0, 100.0, 100.0 ],
					"pic" : "bbbb.png",
					"presentation" : 1,
					"presentation_rect" : [ 414.329651000000013, 128.0, 100.0, 100.0 ]
				}

			}
, 			{
				"box" : 				{
					"fontsize" : 15.0,
					"id" : "obj-13",
					"maxclass" : "comment",
					"numinlets" : 1,
					"numoutlets" : 0,
					"patching_rect" : [ 672.663146999999981, 601.333312999999976, 100.0, 23.0 ],
					"presentation" : 1,
					"presentation_rect" : [ 294.663146999999981, 101.333313000000004, 100.0, 23.0 ],
					"text" : "Phrygian",
					"textjustification" : 1
				}

			}
, 			{
				"box" : 				{
					"autofit" : 1,
					"forceaspect" : 1,
					"id" : "obj-18",
					"maxclass" : "fpic",
					"numinlets" : 1,
					"numoutlets" : 1,
					"outlettype" : [ "jit_matrix" ],
					"patching_rect" : [ 672.663146999999981, 628.0, 100.0, 100.0 ],
					"pic" : "###.png",
					"presentation" : 1,
					"presentation_rect" : [ 294.663146999999981, 128.0, 100.0, 100.0 ]
				}

			}
, 			{
				"box" : 				{
					"fontsize" : 15.0,
					"id" : "obj-9",
					"maxclass" : "comment",
					"numinlets" : 1,
					"numoutlets" : 0,
					"patching_rect" : [ 552.996642999999949, 601.333312999999976, 100.0, 23.0 ],
					"presentation" : 1,
					"presentation_rect" : [ 174.996643000000006, 101.333313000000004, 100.0, 23.0 ],
					"text" : "Dorian",
					"textjustification" : 1
				}

			}
, 			{
				"box" : 				{
					"autofit" : 1,
					"forceaspect" : 1,
					"id" : "obj-11",
					"maxclass" : "fpic",
					"numinlets" : 1,
					"numoutlets" : 1,
					"outlettype" : [ "jit_matrix" ],
					"patching_rect" : [ 552.996642999999949, 628.0, 100.0, 100.0 ],
					"pic" : "#####.png",
					"presentation" : 1,
					"presentation_rect" : [ 174.996643000000006, 128.0, 100.0, 100.0 ]
				}

			}
, 			{
				"box" : 				{
					"fontsize" : 15.0,
					"id" : "obj-8",
					"maxclass" : "comment",
					"numinlets" : 1,
					"numoutlets" : 0,
					"patching_rect" : [ 433.329926, 601.333312999999976, 100.0, 23.0 ],
					"presentation" : 1,
					"presentation_rect" : [ 55.329926, 101.333313000000004, 100.0, 23.0 ],
					"text" : "Ionian",
					"textjustification" : 1
				}

			}
, 			{
				"box" : 				{
					"id" : "obj-5",
					"maxclass" : "message",
					"numinlets" : 2,
					"numoutlets" : 1,
					"outlettype" : [ "" ],
					"patching_rect" : [ 434.396575999999982, 279.599976000000026, 95.0, 22.0 ],
					"text" : "pic C-Major.png"
				}

			}
, 			{
				"box" : 				{
					"autofit" : 1,
					"forceaspect" : 1,
					"id" : "obj-147",
					"maxclass" : "fpic",
					"numinlets" : 1,
					"numoutlets" : 1,
					"outlettype" : [ "jit_matrix" ],
					"patching_rect" : [ 433.329926, 628.0, 100.0, 100.0 ],
					"pic" : "bbbbb.png",
					"presentation" : 1,
					"presentation_rect" : [ 55.329926, 128.0, 100.0, 100.0 ]
				}

			}
 ],
		"lines" : [ 			{
				"patchline" : 				{
					"destination" : [ "obj-5", 0 ],
					"order" : 6,
					"source" : [ "obj-124", 0 ]
				}

			}
, 			{
				"patchline" : 				{
					"destination" : [ "obj-50", 0 ],
					"order" : 5,
					"source" : [ "obj-124", 0 ]
				}

			}
, 			{
				"patchline" : 				{
					"destination" : [ "obj-53", 0 ],
					"order" : 4,
					"source" : [ "obj-124", 0 ]
				}

			}
, 			{
				"patchline" : 				{
					"destination" : [ "obj-54", 0 ],
					"order" : 3,
					"source" : [ "obj-124", 0 ]
				}

			}
, 			{
				"patchline" : 				{
					"destination" : [ "obj-55", 0 ],
					"order" : 2,
					"source" : [ "obj-124", 0 ]
				}

			}
, 			{
				"patchline" : 				{
					"destination" : [ "obj-57", 0 ],
					"order" : 1,
					"source" : [ "obj-124", 0 ]
				}

			}
, 			{
				"patchline" : 				{
					"destination" : [ "obj-62", 0 ],
					"order" : 0,
					"source" : [ "obj-124", 0 ]
				}

			}
, 			{
				"patchline" : 				{
					"destination" : [ "obj-127", 0 ],
					"order" : 0,
					"source" : [ "obj-125", 0 ]
				}

			}
, 			{
				"patchline" : 				{
					"destination" : [ "obj-131", 0 ],
					"order" : 1,
					"source" : [ "obj-125", 0 ]
				}

			}
, 			{
				"patchline" : 				{
					"destination" : [ "obj-132", 0 ],
					"order" : 2,
					"source" : [ "obj-125", 0 ]
				}

			}
, 			{
				"patchline" : 				{
					"destination" : [ "obj-133", 0 ],
					"order" : 3,
					"source" : [ "obj-125", 0 ]
				}

			}
, 			{
				"patchline" : 				{
					"destination" : [ "obj-135", 0 ],
					"order" : 4,
					"source" : [ "obj-125", 0 ]
				}

			}
, 			{
				"patchline" : 				{
					"destination" : [ "obj-143", 0 ],
					"order" : 5,
					"source" : [ "obj-125", 0 ]
				}

			}
, 			{
				"patchline" : 				{
					"destination" : [ "obj-150", 0 ],
					"order" : 6,
					"source" : [ "obj-125", 0 ]
				}

			}
, 			{
				"patchline" : 				{
					"destination" : [ "obj-36", 0 ],
					"source" : [ "obj-127", 0 ]
				}

			}
, 			{
				"patchline" : 				{
					"destination" : [ "obj-33", 0 ],
					"source" : [ "obj-131", 0 ]
				}

			}
, 			{
				"patchline" : 				{
					"destination" : [ "obj-29", 0 ],
					"source" : [ "obj-132", 0 ]
				}

			}
, 			{
				"patchline" : 				{
					"destination" : [ "obj-25", 0 ],
					"source" : [ "obj-133", 0 ]
				}

			}
, 			{
				"patchline" : 				{
					"destination" : [ "obj-18", 0 ],
					"source" : [ "obj-135", 0 ]
				}

			}
, 			{
				"patchline" : 				{
					"destination" : [ "obj-11", 0 ],
					"source" : [ "obj-143", 0 ]
				}

			}
, 			{
				"patchline" : 				{
					"destination" : [ "obj-147", 0 ],
					"source" : [ "obj-150", 0 ]
				}

			}
, 			{
				"patchline" : 				{
					"destination" : [ "obj-152", 0 ],
					"order" : 0,
					"source" : [ "obj-151", 0 ]
				}

			}
, 			{
				"patchline" : 				{
					"destination" : [ "obj-153", 0 ],
					"order" : 1,
					"source" : [ "obj-151", 0 ]
				}

			}
, 			{
				"patchline" : 				{
					"destination" : [ "obj-154", 0 ],
					"order" : 2,
					"source" : [ "obj-151", 0 ]
				}

			}
, 			{
				"patchline" : 				{
					"destination" : [ "obj-155", 0 ],
					"order" : 3,
					"source" : [ "obj-151", 0 ]
				}

			}
, 			{
				"patchline" : 				{
					"destination" : [ "obj-156", 0 ],
					"order" : 4,
					"source" : [ "obj-151", 0 ]
				}

			}
, 			{
				"patchline" : 				{
					"destination" : [ "obj-157", 0 ],
					"order" : 5,
					"source" : [ "obj-151", 0 ]
				}

			}
, 			{
				"patchline" : 				{
					"destination" : [ "obj-158", 0 ],
					"order" : 6,
					"source" : [ "obj-151", 0 ]
				}

			}
, 			{
				"patchline" : 				{
					"destination" : [ "obj-36", 0 ],
					"source" : [ "obj-152", 0 ]
				}

			}
, 			{
				"patchline" : 				{
					"destination" : [ "obj-33", 0 ],
					"source" : [ "obj-153", 0 ]
				}

			}
, 			{
				"patchline" : 				{
					"destination" : [ "obj-29", 0 ],
					"source" : [ "obj-154", 0 ]
				}

			}
, 			{
				"patchline" : 				{
					"destination" : [ "obj-25", 0 ],
					"source" : [ "obj-155", 0 ]
				}

			}
, 			{
				"patchline" : 				{
					"destination" : [ "obj-18", 0 ],
					"source" : [ "obj-156", 0 ]
				}

			}
, 			{
				"patchline" : 				{
					"destination" : [ "obj-11", 0 ],
					"source" : [ "obj-157", 0 ]
				}

			}
, 			{
				"patchline" : 				{
					"destination" : [ "obj-147", 0 ],
					"source" : [ "obj-158", 0 ]
				}

			}
, 			{
				"patchline" : 				{
					"destination" : [ "obj-160", 0 ],
					"order" : 0,
					"source" : [ "obj-159", 0 ]
				}

			}
, 			{
				"patchline" : 				{
					"destination" : [ "obj-161", 0 ],
					"order" : 1,
					"source" : [ "obj-159", 0 ]
				}

			}
, 			{
				"patchline" : 				{
					"destination" : [ "obj-162", 0 ],
					"order" : 2,
					"source" : [ "obj-159", 0 ]
				}

			}
, 			{
				"patchline" : 				{
					"destination" : [ "obj-163", 0 ],
					"order" : 3,
					"source" : [ "obj-159", 0 ]
				}

			}
, 			{
				"patchline" : 				{
					"destination" : [ "obj-164", 0 ],
					"order" : 4,
					"source" : [ "obj-159", 0 ]
				}

			}
, 			{
				"patchline" : 				{
					"destination" : [ "obj-165", 0 ],
					"order" : 5,
					"source" : [ "obj-159", 0 ]
				}

			}
, 			{
				"patchline" : 				{
					"destination" : [ "obj-166", 0 ],
					"order" : 6,
					"source" : [ "obj-159", 0 ]
				}

			}
, 			{
				"patchline" : 				{
					"destination" : [ "obj-36", 0 ],
					"source" : [ "obj-160", 0 ]
				}

			}
, 			{
				"patchline" : 				{
					"destination" : [ "obj-33", 0 ],
					"source" : [ "obj-161", 0 ]
				}

			}
, 			{
				"patchline" : 				{
					"destination" : [ "obj-29", 0 ],
					"source" : [ "obj-162", 0 ]
				}

			}
, 			{
				"patchline" : 				{
					"destination" : [ "obj-25", 0 ],
					"source" : [ "obj-163", 0 ]
				}

			}
, 			{
				"patchline" : 				{
					"destination" : [ "obj-18", 0 ],
					"source" : [ "obj-164", 0 ]
				}

			}
, 			{
				"patchline" : 				{
					"destination" : [ "obj-11", 0 ],
					"source" : [ "obj-165", 0 ]
				}

			}
, 			{
				"patchline" : 				{
					"destination" : [ "obj-147", 0 ],
					"source" : [ "obj-166", 0 ]
				}

			}
, 			{
				"patchline" : 				{
					"destination" : [ "obj-168", 0 ],
					"order" : 0,
					"source" : [ "obj-167", 0 ]
				}

			}
, 			{
				"patchline" : 				{
					"destination" : [ "obj-169", 0 ],
					"order" : 1,
					"source" : [ "obj-167", 0 ]
				}

			}
, 			{
				"patchline" : 				{
					"destination" : [ "obj-170", 0 ],
					"order" : 2,
					"source" : [ "obj-167", 0 ]
				}

			}
, 			{
				"patchline" : 				{
					"destination" : [ "obj-172", 0 ],
					"order" : 3,
					"source" : [ "obj-167", 0 ]
				}

			}
, 			{
				"patchline" : 				{
					"destination" : [ "obj-173", 0 ],
					"order" : 4,
					"source" : [ "obj-167", 0 ]
				}

			}
, 			{
				"patchline" : 				{
					"destination" : [ "obj-174", 0 ],
					"order" : 5,
					"source" : [ "obj-167", 0 ]
				}

			}
, 			{
				"patchline" : 				{
					"destination" : [ "obj-175", 0 ],
					"order" : 6,
					"source" : [ "obj-167", 0 ]
				}

			}
, 			{
				"patchline" : 				{
					"destination" : [ "obj-36", 0 ],
					"source" : [ "obj-168", 0 ]
				}

			}
, 			{
				"patchline" : 				{
					"destination" : [ "obj-33", 0 ],
					"source" : [ "obj-169", 0 ]
				}

			}
, 			{
				"patchline" : 				{
					"destination" : [ "obj-29", 0 ],
					"source" : [ "obj-170", 0 ]
				}

			}
, 			{
				"patchline" : 				{
					"destination" : [ "obj-25", 0 ],
					"source" : [ "obj-172", 0 ]
				}

			}
, 			{
				"patchline" : 				{
					"destination" : [ "obj-18", 0 ],
					"source" : [ "obj-173", 0 ]
				}

			}
, 			{
				"patchline" : 				{
					"destination" : [ "obj-11", 0 ],
					"source" : [ "obj-174", 0 ]
				}

			}
, 			{
				"patchline" : 				{
					"destination" : [ "obj-147", 0 ],
					"source" : [ "obj-175", 0 ]
				}

			}
, 			{
				"patchline" : 				{
					"destination" : [ "obj-177", 0 ],
					"order" : 0,
					"source" : [ "obj-176", 0 ]
				}

			}
, 			{
				"patchline" : 				{
					"destination" : [ "obj-178", 0 ],
					"order" : 1,
					"source" : [ "obj-176", 0 ]
				}

			}
, 			{
				"patchline" : 				{
					"destination" : [ "obj-179", 0 ],
					"order" : 2,
					"source" : [ "obj-176", 0 ]
				}

			}
, 			{
				"patchline" : 				{
					"destination" : [ "obj-180", 0 ],
					"order" : 3,
					"source" : [ "obj-176", 0 ]
				}

			}
, 			{
				"patchline" : 				{
					"destination" : [ "obj-181", 0 ],
					"order" : 4,
					"source" : [ "obj-176", 0 ]
				}

			}
, 			{
				"patchline" : 				{
					"destination" : [ "obj-182", 0 ],
					"order" : 5,
					"source" : [ "obj-176", 0 ]
				}

			}
, 			{
				"patchline" : 				{
					"destination" : [ "obj-183", 0 ],
					"order" : 6,
					"source" : [ "obj-176", 0 ]
				}

			}
, 			{
				"patchline" : 				{
					"destination" : [ "obj-36", 0 ],
					"source" : [ "obj-177", 0 ]
				}

			}
, 			{
				"patchline" : 				{
					"destination" : [ "obj-33", 0 ],
					"source" : [ "obj-178", 0 ]
				}

			}
, 			{
				"patchline" : 				{
					"destination" : [ "obj-29", 0 ],
					"source" : [ "obj-179", 0 ]
				}

			}
, 			{
				"patchline" : 				{
					"destination" : [ "obj-25", 0 ],
					"source" : [ "obj-180", 0 ]
				}

			}
, 			{
				"patchline" : 				{
					"destination" : [ "obj-18", 0 ],
					"source" : [ "obj-181", 0 ]
				}

			}
, 			{
				"patchline" : 				{
					"destination" : [ "obj-11", 0 ],
					"source" : [ "obj-182", 0 ]
				}

			}
, 			{
				"patchline" : 				{
					"destination" : [ "obj-147", 0 ],
					"source" : [ "obj-183", 0 ]
				}

			}
, 			{
				"patchline" : 				{
					"destination" : [ "obj-185", 0 ],
					"order" : 0,
					"source" : [ "obj-184", 0 ]
				}

			}
, 			{
				"patchline" : 				{
					"destination" : [ "obj-186", 0 ],
					"order" : 1,
					"source" : [ "obj-184", 0 ]
				}

			}
, 			{
				"patchline" : 				{
					"destination" : [ "obj-187", 0 ],
					"order" : 2,
					"source" : [ "obj-184", 0 ]
				}

			}
, 			{
				"patchline" : 				{
					"destination" : [ "obj-188", 0 ],
					"order" : 3,
					"source" : [ "obj-184", 0 ]
				}

			}
, 			{
				"patchline" : 				{
					"destination" : [ "obj-189", 0 ],
					"order" : 4,
					"source" : [ "obj-184", 0 ]
				}

			}
, 			{
				"patchline" : 				{
					"destination" : [ "obj-190", 0 ],
					"order" : 5,
					"source" : [ "obj-184", 0 ]
				}

			}
, 			{
				"patchline" : 				{
					"destination" : [ "obj-191", 0 ],
					"order" : 6,
					"source" : [ "obj-184", 0 ]
				}

			}
, 			{
				"patchline" : 				{
					"destination" : [ "obj-36", 0 ],
					"source" : [ "obj-185", 0 ]
				}

			}
, 			{
				"patchline" : 				{
					"destination" : [ "obj-33", 0 ],
					"source" : [ "obj-186", 0 ]
				}

			}
, 			{
				"patchline" : 				{
					"destination" : [ "obj-29", 0 ],
					"source" : [ "obj-187", 0 ]
				}

			}
, 			{
				"patchline" : 				{
					"destination" : [ "obj-25", 0 ],
					"source" : [ "obj-188", 0 ]
				}

			}
, 			{
				"patchline" : 				{
					"destination" : [ "obj-18", 0 ],
					"source" : [ "obj-189", 0 ]
				}

			}
, 			{
				"patchline" : 				{
					"destination" : [ "obj-11", 0 ],
					"source" : [ "obj-190", 0 ]
				}

			}
, 			{
				"patchline" : 				{
					"destination" : [ "obj-147", 0 ],
					"source" : [ "obj-191", 0 ]
				}

			}
, 			{
				"patchline" : 				{
					"destination" : [ "obj-194", 0 ],
					"order" : 0,
					"source" : [ "obj-193", 0 ]
				}

			}
, 			{
				"patchline" : 				{
					"destination" : [ "obj-195", 0 ],
					"order" : 1,
					"source" : [ "obj-193", 0 ]
				}

			}
, 			{
				"patchline" : 				{
					"destination" : [ "obj-208", 0 ],
					"order" : 2,
					"source" : [ "obj-193", 0 ]
				}

			}
, 			{
				"patchline" : 				{
					"destination" : [ "obj-212", 0 ],
					"order" : 3,
					"source" : [ "obj-193", 0 ]
				}

			}
, 			{
				"patchline" : 				{
					"destination" : [ "obj-213", 0 ],
					"order" : 4,
					"source" : [ "obj-193", 0 ]
				}

			}
, 			{
				"patchline" : 				{
					"destination" : [ "obj-214", 0 ],
					"order" : 5,
					"source" : [ "obj-193", 0 ]
				}

			}
, 			{
				"patchline" : 				{
					"destination" : [ "obj-215", 0 ],
					"order" : 6,
					"source" : [ "obj-193", 0 ]
				}

			}
, 			{
				"patchline" : 				{
					"destination" : [ "obj-36", 0 ],
					"source" : [ "obj-194", 0 ]
				}

			}
, 			{
				"patchline" : 				{
					"destination" : [ "obj-33", 0 ],
					"source" : [ "obj-195", 0 ]
				}

			}
, 			{
				"patchline" : 				{
					"destination" : [ "obj-29", 0 ],
					"source" : [ "obj-208", 0 ]
				}

			}
, 			{
				"patchline" : 				{
					"destination" : [ "obj-25", 0 ],
					"source" : [ "obj-212", 0 ]
				}

			}
, 			{
				"patchline" : 				{
					"destination" : [ "obj-18", 0 ],
					"source" : [ "obj-213", 0 ]
				}

			}
, 			{
				"patchline" : 				{
					"destination" : [ "obj-11", 0 ],
					"source" : [ "obj-214", 0 ]
				}

			}
, 			{
				"patchline" : 				{
					"destination" : [ "obj-147", 0 ],
					"source" : [ "obj-215", 0 ]
				}

			}
, 			{
				"patchline" : 				{
					"destination" : [ "obj-218", 0 ],
					"order" : 0,
					"source" : [ "obj-217", 0 ]
				}

			}
, 			{
				"patchline" : 				{
					"destination" : [ "obj-219", 0 ],
					"order" : 1,
					"source" : [ "obj-217", 0 ]
				}

			}
, 			{
				"patchline" : 				{
					"destination" : [ "obj-220", 0 ],
					"order" : 2,
					"source" : [ "obj-217", 0 ]
				}

			}
, 			{
				"patchline" : 				{
					"destination" : [ "obj-221", 0 ],
					"order" : 3,
					"source" : [ "obj-217", 0 ]
				}

			}
, 			{
				"patchline" : 				{
					"destination" : [ "obj-222", 0 ],
					"order" : 4,
					"source" : [ "obj-217", 0 ]
				}

			}
, 			{
				"patchline" : 				{
					"destination" : [ "obj-223", 0 ],
					"order" : 5,
					"source" : [ "obj-217", 0 ]
				}

			}
, 			{
				"patchline" : 				{
					"destination" : [ "obj-224", 0 ],
					"order" : 6,
					"source" : [ "obj-217", 0 ]
				}

			}
, 			{
				"patchline" : 				{
					"destination" : [ "obj-36", 0 ],
					"source" : [ "obj-218", 0 ]
				}

			}
, 			{
				"patchline" : 				{
					"destination" : [ "obj-33", 0 ],
					"source" : [ "obj-219", 0 ]
				}

			}
, 			{
				"patchline" : 				{
					"destination" : [ "obj-29", 0 ],
					"source" : [ "obj-220", 0 ]
				}

			}
, 			{
				"patchline" : 				{
					"destination" : [ "obj-25", 0 ],
					"source" : [ "obj-221", 0 ]
				}

			}
, 			{
				"patchline" : 				{
					"destination" : [ "obj-18", 0 ],
					"source" : [ "obj-222", 0 ]
				}

			}
, 			{
				"patchline" : 				{
					"destination" : [ "obj-11", 0 ],
					"source" : [ "obj-223", 0 ]
				}

			}
, 			{
				"patchline" : 				{
					"destination" : [ "obj-147", 0 ],
					"source" : [ "obj-224", 0 ]
				}

			}
, 			{
				"patchline" : 				{
					"destination" : [ "obj-226", 0 ],
					"order" : 0,
					"source" : [ "obj-225", 0 ]
				}

			}
, 			{
				"patchline" : 				{
					"destination" : [ "obj-246", 0 ],
					"order" : 1,
					"source" : [ "obj-225", 0 ]
				}

			}
, 			{
				"patchline" : 				{
					"destination" : [ "obj-281", 0 ],
					"order" : 2,
					"source" : [ "obj-225", 0 ]
				}

			}
, 			{
				"patchline" : 				{
					"destination" : [ "obj-286", 0 ],
					"order" : 3,
					"source" : [ "obj-225", 0 ]
				}

			}
, 			{
				"patchline" : 				{
					"destination" : [ "obj-295", 0 ],
					"order" : 4,
					"source" : [ "obj-225", 0 ]
				}

			}
, 			{
				"patchline" : 				{
					"destination" : [ "obj-298", 0 ],
					"order" : 5,
					"source" : [ "obj-225", 0 ]
				}

			}
, 			{
				"patchline" : 				{
					"destination" : [ "obj-300", 0 ],
					"order" : 6,
					"source" : [ "obj-225", 0 ]
				}

			}
, 			{
				"patchline" : 				{
					"destination" : [ "obj-36", 0 ],
					"source" : [ "obj-226", 0 ]
				}

			}
, 			{
				"patchline" : 				{
					"destination" : [ "obj-33", 0 ],
					"source" : [ "obj-246", 0 ]
				}

			}
, 			{
				"patchline" : 				{
					"destination" : [ "obj-29", 0 ],
					"source" : [ "obj-281", 0 ]
				}

			}
, 			{
				"patchline" : 				{
					"destination" : [ "obj-25", 0 ],
					"source" : [ "obj-286", 0 ]
				}

			}
, 			{
				"patchline" : 				{
					"destination" : [ "obj-18", 0 ],
					"source" : [ "obj-295", 0 ]
				}

			}
, 			{
				"patchline" : 				{
					"destination" : [ "obj-11", 0 ],
					"source" : [ "obj-298", 0 ]
				}

			}
, 			{
				"patchline" : 				{
					"destination" : [ "obj-147", 0 ],
					"source" : [ "obj-300", 0 ]
				}

			}
, 			{
				"patchline" : 				{
					"destination" : [ "obj-303", 0 ],
					"order" : 0,
					"source" : [ "obj-302", 0 ]
				}

			}
, 			{
				"patchline" : 				{
					"destination" : [ "obj-304", 0 ],
					"order" : 1,
					"source" : [ "obj-302", 0 ]
				}

			}
, 			{
				"patchline" : 				{
					"destination" : [ "obj-305", 0 ],
					"order" : 2,
					"source" : [ "obj-302", 0 ]
				}

			}
, 			{
				"patchline" : 				{
					"destination" : [ "obj-306", 0 ],
					"order" : 3,
					"source" : [ "obj-302", 0 ]
				}

			}
, 			{
				"patchline" : 				{
					"destination" : [ "obj-307", 0 ],
					"order" : 4,
					"source" : [ "obj-302", 0 ]
				}

			}
, 			{
				"patchline" : 				{
					"destination" : [ "obj-308", 0 ],
					"order" : 5,
					"source" : [ "obj-302", 0 ]
				}

			}
, 			{
				"patchline" : 				{
					"destination" : [ "obj-309", 0 ],
					"order" : 6,
					"source" : [ "obj-302", 0 ]
				}

			}
, 			{
				"patchline" : 				{
					"destination" : [ "obj-36", 0 ],
					"source" : [ "obj-303", 0 ]
				}

			}
, 			{
				"patchline" : 				{
					"destination" : [ "obj-33", 0 ],
					"source" : [ "obj-304", 0 ]
				}

			}
, 			{
				"patchline" : 				{
					"destination" : [ "obj-29", 0 ],
					"source" : [ "obj-305", 0 ]
				}

			}
, 			{
				"patchline" : 				{
					"destination" : [ "obj-25", 0 ],
					"source" : [ "obj-306", 0 ]
				}

			}
, 			{
				"patchline" : 				{
					"destination" : [ "obj-18", 0 ],
					"source" : [ "obj-307", 0 ]
				}

			}
, 			{
				"patchline" : 				{
					"destination" : [ "obj-11", 0 ],
					"source" : [ "obj-308", 0 ]
				}

			}
, 			{
				"patchline" : 				{
					"destination" : [ "obj-147", 0 ],
					"source" : [ "obj-309", 0 ]
				}

			}
, 			{
				"patchline" : 				{
					"destination" : [ "obj-311", 0 ],
					"order" : 0,
					"source" : [ "obj-310", 0 ]
				}

			}
, 			{
				"patchline" : 				{
					"destination" : [ "obj-312", 0 ],
					"order" : 1,
					"source" : [ "obj-310", 0 ]
				}

			}
, 			{
				"patchline" : 				{
					"destination" : [ "obj-313", 0 ],
					"order" : 2,
					"source" : [ "obj-310", 0 ]
				}

			}
, 			{
				"patchline" : 				{
					"destination" : [ "obj-314", 0 ],
					"order" : 3,
					"source" : [ "obj-310", 0 ]
				}

			}
, 			{
				"patchline" : 				{
					"destination" : [ "obj-315", 0 ],
					"order" : 4,
					"source" : [ "obj-310", 0 ]
				}

			}
, 			{
				"patchline" : 				{
					"destination" : [ "obj-316", 0 ],
					"order" : 5,
					"source" : [ "obj-310", 0 ]
				}

			}
, 			{
				"patchline" : 				{
					"destination" : [ "obj-317", 0 ],
					"order" : 6,
					"source" : [ "obj-310", 0 ]
				}

			}
, 			{
				"patchline" : 				{
					"destination" : [ "obj-36", 0 ],
					"source" : [ "obj-311", 0 ]
				}

			}
, 			{
				"patchline" : 				{
					"destination" : [ "obj-33", 0 ],
					"source" : [ "obj-312", 0 ]
				}

			}
, 			{
				"patchline" : 				{
					"destination" : [ "obj-29", 0 ],
					"source" : [ "obj-313", 0 ]
				}

			}
, 			{
				"patchline" : 				{
					"destination" : [ "obj-25", 0 ],
					"source" : [ "obj-314", 0 ]
				}

			}
, 			{
				"patchline" : 				{
					"destination" : [ "obj-18", 0 ],
					"source" : [ "obj-315", 0 ]
				}

			}
, 			{
				"patchline" : 				{
					"destination" : [ "obj-11", 0 ],
					"source" : [ "obj-316", 0 ]
				}

			}
, 			{
				"patchline" : 				{
					"destination" : [ "obj-147", 0 ],
					"source" : [ "obj-317", 0 ]
				}

			}
, 			{
				"patchline" : 				{
					"destination" : [ "obj-324", 0 ],
					"source" : [ "obj-323", 0 ]
				}

			}
, 			{
				"patchline" : 				{
					"destination" : [ "obj-327", 0 ],
					"source" : [ "obj-324", 0 ]
				}

			}
, 			{
				"patchline" : 				{
					"destination" : [ "obj-323", 0 ],
					"order" : 1,
					"source" : [ "obj-325", 0 ]
				}

			}
, 			{
				"patchline" : 				{
					"destination" : [ "obj-338", 0 ],
					"order" : 0,
					"source" : [ "obj-325", 0 ]
				}

			}
, 			{
				"patchline" : 				{
					"destination" : [ "obj-325", 0 ],
					"source" : [ "obj-326", 0 ]
				}

			}
, 			{
				"patchline" : 				{
					"destination" : [ "obj-124", 0 ],
					"source" : [ "obj-327", 5 ]
				}

			}
, 			{
				"patchline" : 				{
					"destination" : [ "obj-125", 0 ],
					"source" : [ "obj-327", 4 ]
				}

			}
, 			{
				"patchline" : 				{
					"destination" : [ "obj-151", 0 ],
					"source" : [ "obj-327", 3 ]
				}

			}
, 			{
				"patchline" : 				{
					"destination" : [ "obj-159", 0 ],
					"source" : [ "obj-327", 2 ]
				}

			}
, 			{
				"patchline" : 				{
					"destination" : [ "obj-167", 0 ],
					"source" : [ "obj-327", 1 ]
				}

			}
, 			{
				"patchline" : 				{
					"destination" : [ "obj-176", 0 ],
					"source" : [ "obj-327", 0 ]
				}

			}
, 			{
				"patchline" : 				{
					"destination" : [ "obj-184", 0 ],
					"source" : [ "obj-327", 6 ]
				}

			}
, 			{
				"patchline" : 				{
					"destination" : [ "obj-193", 0 ],
					"source" : [ "obj-327", 7 ]
				}

			}
, 			{
				"patchline" : 				{
					"destination" : [ "obj-217", 0 ],
					"source" : [ "obj-327", 8 ]
				}

			}
, 			{
				"patchline" : 				{
					"destination" : [ "obj-225", 0 ],
					"source" : [ "obj-327", 9 ]
				}

			}
, 			{
				"patchline" : 				{
					"destination" : [ "obj-302", 0 ],
					"source" : [ "obj-327", 10 ]
				}

			}
, 			{
				"patchline" : 				{
					"destination" : [ "obj-310", 0 ],
					"source" : [ "obj-327", 11 ]
				}

			}
, 			{
				"patchline" : 				{
					"destination" : [ "obj-323", 0 ],
					"order" : 0,
					"source" : [ "obj-338", 0 ]
				}

			}
, 			{
				"patchline" : 				{
					"destination" : [ "obj-357", 0 ],
					"order" : 1,
					"source" : [ "obj-338", 0 ]
				}

			}
, 			{
				"patchline" : 				{
					"destination" : [ "obj-338", 0 ],
					"source" : [ "obj-352", 0 ]
				}

			}
, 			{
				"patchline" : 				{
					"destination" : [ "obj-358", 0 ],
					"source" : [ "obj-357", 0 ]
				}

			}
, 			{
				"patchline" : 				{
					"destination" : [ "obj-323", 0 ],
					"source" : [ "obj-358", 0 ]
				}

			}
, 			{
				"patchline" : 				{
					"destination" : [ "obj-147", 0 ],
					"source" : [ "obj-5", 0 ]
				}

			}
, 			{
				"patchline" : 				{
					"destination" : [ "obj-11", 0 ],
					"source" : [ "obj-50", 0 ]
				}

			}
, 			{
				"patchline" : 				{
					"destination" : [ "obj-18", 0 ],
					"source" : [ "obj-53", 0 ]
				}

			}
, 			{
				"patchline" : 				{
					"destination" : [ "obj-25", 0 ],
					"source" : [ "obj-54", 0 ]
				}

			}
, 			{
				"patchline" : 				{
					"destination" : [ "obj-29", 0 ],
					"source" : [ "obj-55", 0 ]
				}

			}
, 			{
				"patchline" : 				{
					"destination" : [ "obj-33", 0 ],
					"source" : [ "obj-57", 0 ]
				}

			}
, 			{
				"patchline" : 				{
					"destination" : [ "obj-36", 0 ],
					"source" : [ "obj-62", 0 ]
				}

			}
 ],
		"dependency_cache" : [ 			{
				"name" : "bbbbb.png",
				"bootpath" : "~/Documents/Max 8/Packages/instrument.bible/docs/images/keys",
				"patcherrelativepath" : "../../../../../../Documents/Max 8/Packages/instrument.bible/docs/images/keys",
				"type" : "PNG",
				"implicit" : 1
			}
, 			{
				"name" : "#####.png",
				"bootpath" : "~/Documents/Max 8/Packages/instrument.bible/docs/images/keys",
				"patcherrelativepath" : "../../../../../../Documents/Max 8/Packages/instrument.bible/docs/images/keys",
				"type" : "PNG",
				"implicit" : 1
			}
, 			{
				"name" : "###.png",
				"bootpath" : "~/Documents/Max 8/Packages/instrument.bible/docs/images/keys",
				"patcherrelativepath" : "../../../../../../Documents/Max 8/Packages/instrument.bible/docs/images/keys",
				"type" : "PNG",
				"implicit" : 1
			}
, 			{
				"name" : "bbbb.png",
				"bootpath" : "~/Documents/Max 8/Packages/instrument.bible/docs/images/keys",
				"patcherrelativepath" : "../../../../../../Documents/Max 8/Packages/instrument.bible/docs/images/keys",
				"type" : "PNG",
				"implicit" : 1
			}
, 			{
				"name" : "bbbbbb.png",
				"bootpath" : "~/Documents/Max 8/Packages/instrument.bible/docs/images/keys",
				"patcherrelativepath" : "../../../../../../Documents/Max 8/Packages/instrument.bible/docs/images/keys",
				"type" : "PNG",
				"implicit" : 1
			}
, 			{
				"name" : "####.png",
				"bootpath" : "~/Documents/Max 8/Packages/instrument.bible/docs/images/keys",
				"patcherrelativepath" : "../../../../../../Documents/Max 8/Packages/instrument.bible/docs/images/keys",
				"type" : "PNG",
				"implicit" : 1
			}
, 			{
				"name" : "##.png",
				"bootpath" : "~/Documents/Max 8/Packages/instrument.bible/docs/images/keys",
				"patcherrelativepath" : "../../../../../../Documents/Max 8/Packages/instrument.bible/docs/images/keys",
				"type" : "PNG",
				"implicit" : 1
			}
 ],
		"autosave" : 0,
		"styles" : [ 			{
				"name" : "newobjBlue-1",
				"default" : 				{
					"accentcolor" : [ 0.317647, 0.654902, 0.976471, 1.0 ]
				}
,
				"parentstyle" : "",
				"multi" : 0
			}
, 			{
				"name" : "newobjYellow-1",
				"default" : 				{
					"fontsize" : [ 12.059008 ],
					"accentcolor" : [ 0.82517, 0.78181, 0.059545, 1.0 ]
				}
,
				"parentstyle" : "",
				"multi" : 0
			}
, 			{
				"name" : "numberGold-1",
				"default" : 				{
					"accentcolor" : [ 0.764706, 0.592157, 0.101961, 1.0 ]
				}
,
				"parentstyle" : "",
				"multi" : 0
			}
 ],
		"bgcolor" : [ 1.0, 1.0, 1.0, 1.0 ]
	}

}
