{
	"patcher" : 	{
		"fileversion" : 1,
		"appversion" : 		{
			"major" : 8,
			"minor" : 1,
			"revision" : 3,
			"architecture" : "x64",
			"modernui" : 1
		}
,
		"classnamespace" : "box",
		"rect" : [ 109.0, 154.0, 1155.0, 280.0 ],
		"bglocked" : 0,
		"openinpresentation" : 0,
		"default_fontsize" : 12.0,
		"default_fontface" : 0,
		"default_fontname" : "Arial",
		"gridonopen" : 1,
		"gridsize" : [ 15.0, 15.0 ],
		"gridsnaponopen" : 1,
		"objectsnaponopen" : 1,
		"statusbarvisible" : 2,
		"toolbarvisible" : 1,
		"lefttoolbarpinned" : 0,
		"toptoolbarpinned" : 0,
		"righttoolbarpinned" : 0,
		"bottomtoolbarpinned" : 0,
		"toolbars_unpinned_last_save" : 0,
		"tallnewobj" : 0,
		"boxanimatetime" : 200,
		"enablehscroll" : 1,
		"enablevscroll" : 1,
		"devicewidth" : 0.0,
		"description" : "",
		"digest" : "",
		"tags" : "",
		"style" : "",
		"subpatcher_template" : "",
		"boxes" : [ 			{
				"box" : 				{
					"id" : "obj-1",
					"maxclass" : "newobj",
					"numinlets" : 1,
					"numoutlets" : 1,
					"outlettype" : [ "" ],
					"patching_rect" : [ 1006.243201095367453, 100.0, 33.0, 22.0 ],
					"text" : "rand"
				}

			}
, 			{
				"box" : 				{
					"id" : "obj-528",
					"maxclass" : "newobj",
					"numinlets" : 1,
					"numoutlets" : 1,
					"outlettype" : [ "" ],
					"patching_rect" : [ 311.651694866744037, 100.0, 33.0, 22.0 ],
					"text" : "rand"
				}

			}
, 			{
				"box" : 				{
					"id" : "obj-515",
					"maxclass" : "newobj",
					"numinlets" : 1,
					"numoutlets" : 1,
					"outlettype" : [ "" ],
					"patching_rect" : [ 912.841136845675464, 100.0, 33.0, 22.0 ],
					"text" : "rand"
				}

			}
, 			{
				"box" : 				{
					"id" : "obj-510",
					"maxclass" : "newobj",
					"numinlets" : 1,
					"numoutlets" : 1,
					"outlettype" : [ "" ],
					"patching_rect" : [ 830.441135617819782, 100.0, 33.0, 22.0 ],
					"text" : "rand"
				}

			}
, 			{
				"box" : 				{
					"id" : "obj-494",
					"maxclass" : "newobj",
					"numinlets" : 1,
					"numoutlets" : 1,
					"outlettype" : [ "" ],
					"patching_rect" : [ 740.941124948589277, 100.0, 33.0, 22.0 ],
					"text" : "rand"
				}

			}
, 			{
				"box" : 				{
					"id" : "obj-490",
					"maxclass" : "newobj",
					"numinlets" : 1,
					"numoutlets" : 1,
					"outlettype" : [ "" ],
					"patching_rect" : [ 656.200007319450378, 100.0, 33.0, 22.0 ],
					"text" : "rand"
				}

			}
, 			{
				"box" : 				{
					"id" : "obj-485",
					"maxclass" : "newobj",
					"numinlets" : 1,
					"numoutlets" : 1,
					"outlettype" : [ "" ],
					"patching_rect" : [ 570.60000604391098, 100.0, 33.0, 22.0 ],
					"text" : "rand"
				}

			}
, 			{
				"box" : 				{
					"id" : "obj-479",
					"maxclass" : "newobj",
					"numinlets" : 1,
					"numoutlets" : 1,
					"outlettype" : [ "" ],
					"patching_rect" : [ 483.863636363636942, 100.0, 33.0, 22.0 ],
					"text" : "rand"
				}

			}
, 			{
				"box" : 				{
					"id" : "obj-733",
					"maxclass" : "newobj",
					"numinlets" : 1,
					"numoutlets" : 1,
					"outlettype" : [ "" ],
					"patching_rect" : [ 394.05169609459972, 100.0, 33.0, 22.0 ],
					"text" : "rand"
				}

			}
, 			{
				"box" : 				{
					"id" : "obj-724",
					"maxclass" : "newobj",
					"numinlets" : 1,
					"numoutlets" : 1,
					"outlettype" : [ "" ],
					"patching_rect" : [ 224.0, 100.0, 33.0, 22.0 ],
					"text" : "rand"
				}

			}
, 			{
				"box" : 				{
					"id" : "obj-727",
					"maxclass" : "newobj",
					"numinlets" : 1,
					"numoutlets" : 1,
					"outlettype" : [ "" ],
					"patching_rect" : [ 142.0, 100.0, 33.0, 22.0 ],
					"text" : "rand"
				}

			}
, 			{
				"box" : 				{
					"id" : "obj-730",
					"maxclass" : "newobj",
					"numinlets" : 1,
					"numoutlets" : 1,
					"outlettype" : [ "" ],
					"patching_rect" : [ 50.0, 100.0, 33.0, 22.0 ],
					"text" : "rand"
				}

			}
, 			{
				"box" : 				{
					"comment" : "",
					"id" : "obj-942",
					"index" : 0,
					"maxclass" : "inlet",
					"numinlets" : 0,
					"numoutlets" : 1,
					"outlettype" : [ "" ],
					"patching_rect" : [ 510.569464095367493, 40.000007155727417, 30.0, 30.0 ]
				}

			}
, 			{
				"box" : 				{
					"comment" : "",
					"id" : "obj-943",
					"index" : 0,
					"maxclass" : "outlet",
					"numinlets" : 1,
					"numoutlets" : 0,
					"patching_rect" : [ 50.0, 150.000007155727417, 30.0, 30.0 ]
				}

			}
, 			{
				"box" : 				{
					"comment" : "",
					"id" : "obj-944",
					"index" : 0,
					"maxclass" : "outlet",
					"numinlets" : 1,
					"numoutlets" : 0,
					"patching_rect" : [ 142.000006095367439, 150.000007155727417, 30.0, 30.0 ]
				}

			}
, 			{
				"box" : 				{
					"comment" : "",
					"id" : "obj-945",
					"index" : 0,
					"maxclass" : "outlet",
					"numinlets" : 1,
					"numoutlets" : 0,
					"patching_rect" : [ 224.000006095367439, 150.000007155727417, 30.0, 30.0 ]
				}

			}
, 			{
				"box" : 				{
					"comment" : "",
					"id" : "obj-946",
					"index" : 0,
					"maxclass" : "outlet",
					"numinlets" : 1,
					"numoutlets" : 0,
					"patching_rect" : [ 311.651709095367437, 150.000007155727417, 30.0, 30.0 ]
				}

			}
, 			{
				"box" : 				{
					"comment" : "",
					"id" : "obj-947",
					"index" : 0,
					"maxclass" : "outlet",
					"numinlets" : 1,
					"numoutlets" : 0,
					"patching_rect" : [ 394.051703095367429, 150.000007155727417, 30.0, 30.0 ]
				}

			}
, 			{
				"box" : 				{
					"comment" : "",
					"id" : "obj-948",
					"index" : 0,
					"maxclass" : "outlet",
					"numinlets" : 1,
					"numoutlets" : 0,
					"patching_rect" : [ 483.863623095367416, 150.000007155727417, 30.0, 30.0 ]
				}

			}
, 			{
				"box" : 				{
					"comment" : "",
					"id" : "obj-949",
					"index" : 0,
					"maxclass" : "outlet",
					"numinlets" : 1,
					"numoutlets" : 0,
					"patching_rect" : [ 570.600012095367447, 150.000007155727417, 30.0, 30.0 ]
				}

			}
, 			{
				"box" : 				{
					"comment" : "",
					"id" : "obj-950",
					"index" : 0,
					"maxclass" : "outlet",
					"numinlets" : 1,
					"numoutlets" : 0,
					"patching_rect" : [ 656.199988095367416, 150.000007155727417, 30.0, 30.0 ]
				}

			}
, 			{
				"box" : 				{
					"comment" : "",
					"id" : "obj-951",
					"index" : 0,
					"maxclass" : "outlet",
					"numinlets" : 1,
					"numoutlets" : 0,
					"patching_rect" : [ 740.941138095367478, 150.000007155727417, 30.0, 30.0 ]
				}

			}
, 			{
				"box" : 				{
					"comment" : "",
					"id" : "obj-952",
					"index" : 0,
					"maxclass" : "outlet",
					"numinlets" : 1,
					"numoutlets" : 0,
					"patching_rect" : [ 830.441138095367478, 150.000007155727417, 30.0, 30.0 ]
				}

			}
, 			{
				"box" : 				{
					"comment" : "",
					"id" : "obj-953",
					"index" : 0,
					"maxclass" : "outlet",
					"numinlets" : 1,
					"numoutlets" : 0,
					"patching_rect" : [ 912.841162095367395, 150.000007155727417, 30.0, 30.0 ]
				}

			}
, 			{
				"box" : 				{
					"comment" : "",
					"id" : "obj-954",
					"index" : 0,
					"maxclass" : "outlet",
					"numinlets" : 1,
					"numoutlets" : 0,
					"patching_rect" : [ 1006.243201095367453, 150.000007155727417, 30.0, 30.0 ]
				}

			}
 ],
		"lines" : [ 			{
				"patchline" : 				{
					"destination" : [ "obj-954", 0 ],
					"source" : [ "obj-1", 0 ]
				}

			}
, 			{
				"patchline" : 				{
					"destination" : [ "obj-948", 0 ],
					"source" : [ "obj-479", 0 ]
				}

			}
, 			{
				"patchline" : 				{
					"destination" : [ "obj-949", 0 ],
					"source" : [ "obj-485", 0 ]
				}

			}
, 			{
				"patchline" : 				{
					"destination" : [ "obj-950", 0 ],
					"source" : [ "obj-490", 0 ]
				}

			}
, 			{
				"patchline" : 				{
					"destination" : [ "obj-951", 0 ],
					"source" : [ "obj-494", 0 ]
				}

			}
, 			{
				"patchline" : 				{
					"destination" : [ "obj-952", 0 ],
					"source" : [ "obj-510", 0 ]
				}

			}
, 			{
				"patchline" : 				{
					"destination" : [ "obj-953", 0 ],
					"source" : [ "obj-515", 0 ]
				}

			}
, 			{
				"patchline" : 				{
					"destination" : [ "obj-946", 0 ],
					"source" : [ "obj-528", 0 ]
				}

			}
, 			{
				"patchline" : 				{
					"destination" : [ "obj-945", 0 ],
					"source" : [ "obj-724", 0 ]
				}

			}
, 			{
				"patchline" : 				{
					"destination" : [ "obj-944", 0 ],
					"source" : [ "obj-727", 0 ]
				}

			}
, 			{
				"patchline" : 				{
					"destination" : [ "obj-943", 0 ],
					"source" : [ "obj-730", 0 ]
				}

			}
, 			{
				"patchline" : 				{
					"destination" : [ "obj-947", 0 ],
					"source" : [ "obj-733", 0 ]
				}

			}
, 			{
				"patchline" : 				{
					"destination" : [ "obj-1", 0 ],
					"order" : 0,
					"source" : [ "obj-942", 0 ]
				}

			}
, 			{
				"patchline" : 				{
					"destination" : [ "obj-479", 0 ],
					"order" : 6,
					"source" : [ "obj-942", 0 ]
				}

			}
, 			{
				"patchline" : 				{
					"destination" : [ "obj-485", 0 ],
					"order" : 5,
					"source" : [ "obj-942", 0 ]
				}

			}
, 			{
				"patchline" : 				{
					"destination" : [ "obj-490", 0 ],
					"order" : 4,
					"source" : [ "obj-942", 0 ]
				}

			}
, 			{
				"patchline" : 				{
					"destination" : [ "obj-494", 0 ],
					"order" : 3,
					"source" : [ "obj-942", 0 ]
				}

			}
, 			{
				"patchline" : 				{
					"destination" : [ "obj-510", 0 ],
					"order" : 2,
					"source" : [ "obj-942", 0 ]
				}

			}
, 			{
				"patchline" : 				{
					"destination" : [ "obj-515", 0 ],
					"order" : 1,
					"source" : [ "obj-942", 0 ]
				}

			}
, 			{
				"patchline" : 				{
					"destination" : [ "obj-528", 0 ],
					"order" : 8,
					"source" : [ "obj-942", 0 ]
				}

			}
, 			{
				"patchline" : 				{
					"destination" : [ "obj-724", 0 ],
					"order" : 9,
					"source" : [ "obj-942", 0 ]
				}

			}
, 			{
				"patchline" : 				{
					"destination" : [ "obj-727", 0 ],
					"order" : 10,
					"source" : [ "obj-942", 0 ]
				}

			}
, 			{
				"patchline" : 				{
					"destination" : [ "obj-730", 0 ],
					"order" : 11,
					"source" : [ "obj-942", 0 ]
				}

			}
, 			{
				"patchline" : 				{
					"destination" : [ "obj-733", 0 ],
					"order" : 7,
					"source" : [ "obj-942", 0 ]
				}

			}
 ],
		"dependency_cache" : [ 			{
				"name" : "rand.maxpat",
				"bootpath" : "~/MaxMSP-Patches/Nural Network",
				"patcherrelativepath" : ".",
				"type" : "JSON",
				"implicit" : 1
			}
 ],
		"autosave" : 0,
		"styles" : [ 			{
				"name" : "newobjBlue-1",
				"default" : 				{
					"accentcolor" : [ 0.317647, 0.654902, 0.976471, 1.0 ]
				}
,
				"parentstyle" : "",
				"multi" : 0
			}
, 			{
				"name" : "newobjBronze",
				"default" : 				{
					"accentcolor" : [ 0.654902, 0.572549, 0.376471, 1.0 ]
				}
,
				"parentstyle" : "newobjYellow",
				"multi" : 0
			}
, 			{
				"name" : "newobjGold-1",
				"default" : 				{
					"accentcolor" : [ 0.764706, 0.592157, 0.101961, 1.0 ]
				}
,
				"parentstyle" : "",
				"multi" : 0
			}
, 			{
				"name" : "newobjGreen-1",
				"default" : 				{
					"accentcolor" : [ 0.0, 0.533333, 0.168627, 1.0 ]
				}
,
				"parentstyle" : "",
				"multi" : 0
			}
, 			{
				"name" : "newobjYellow-1",
				"default" : 				{
					"fontsize" : [ 12.059008 ],
					"accentcolor" : [ 0.82517, 0.78181, 0.059545, 1.0 ]
				}
,
				"parentstyle" : "",
				"multi" : 0
			}
, 			{
				"name" : "numberGold-1",
				"default" : 				{
					"accentcolor" : [ 0.764706, 0.592157, 0.101961, 1.0 ]
				}
,
				"parentstyle" : "",
				"multi" : 0
			}
 ]
	}

}
