{
	"patcher" : 	{
		"fileversion" : 1,
		"appversion" : 		{
			"major" : 8,
			"minor" : 0,
			"revision" : 3,
			"architecture" : "x64",
			"modernui" : 1
		}
,
		"classnamespace" : "box",
		"rect" : [ 109.0, 56.0, 656.0, 800.0 ],
		"bglocked" : 0,
		"openinpresentation" : 0,
		"default_fontsize" : 12.0,
		"default_fontface" : 0,
		"default_fontname" : "Arial",
		"gridonopen" : 1,
		"gridsize" : [ 15.0, 15.0 ],
		"gridsnaponopen" : 1,
		"objectsnaponopen" : 1,
		"statusbarvisible" : 2,
		"toolbarvisible" : 1,
		"lefttoolbarpinned" : 0,
		"toptoolbarpinned" : 0,
		"righttoolbarpinned" : 0,
		"bottomtoolbarpinned" : 0,
		"toolbars_unpinned_last_save" : 0,
		"tallnewobj" : 0,
		"boxanimatetime" : 200,
		"enablehscroll" : 1,
		"enablevscroll" : 1,
		"devicewidth" : 0.0,
		"description" : "",
		"digest" : "",
		"tags" : "",
		"style" : "",
		"subpatcher_template" : "",
		"boxes" : [ 			{
				"box" : 				{
					"id" : "obj-215",
					"maxclass" : "newobj",
					"numinlets" : 2,
					"numoutlets" : 1,
					"outlettype" : [ "float" ],
					"patching_rect" : [ 468.0, 697.066650390625, 45.0, 22.0 ],
					"text" : "/ 1.852"
				}

			}
, 			{
				"box" : 				{
					"fontface" : 0,
					"id" : "obj-216",
					"maxclass" : "comment",
					"numinlets" : 1,
					"numoutlets" : 0,
					"patching_rect" : [ 530.083251953125, 727.86669921875, 45.0, 20.0 ],
					"text" : "knot"
				}

			}
, 			{
				"box" : 				{
					"fontface" : 0,
					"format" : 6,
					"id" : "obj-217",
					"maxclass" : "flonum",
					"numinlets" : 1,
					"numoutlets" : 2,
					"outlettype" : [ "", "bang" ],
					"parameter_enable" : 0,
					"patching_rect" : [ 468.0, 725.86669921875, 60.0, 22.0 ]
				}

			}
, 			{
				"box" : 				{
					"id" : "obj-218",
					"maxclass" : "newobj",
					"numinlets" : 2,
					"numoutlets" : 1,
					"outlettype" : [ "float" ],
					"patching_rect" : [ 336.083251953125, 697.066650390625, 32.0, 22.0 ],
					"text" : "/ 3.6"
				}

			}
, 			{
				"box" : 				{
					"fontface" : 0,
					"id" : "obj-219",
					"maxclass" : "comment",
					"numinlets" : 1,
					"numoutlets" : 0,
					"patching_rect" : [ 398.16650390625, 727.86669921875, 48.0, 20.0 ],
					"text" : "m/s"
				}

			}
, 			{
				"box" : 				{
					"fontface" : 0,
					"format" : 6,
					"id" : "obj-220",
					"maxclass" : "flonum",
					"numinlets" : 1,
					"numoutlets" : 2,
					"outlettype" : [ "", "bang" ],
					"parameter_enable" : 0,
					"patching_rect" : [ 336.083251953125, 725.86669921875, 60.0, 22.0 ]
				}

			}
, 			{
				"box" : 				{
					"id" : "obj-221",
					"maxclass" : "newobj",
					"numinlets" : 2,
					"numoutlets" : 1,
					"outlettype" : [ "float" ],
					"patching_rect" : [ 205.0, 697.066650390625, 45.0, 22.0 ],
					"text" : "/ 1.097"
				}

			}
, 			{
				"box" : 				{
					"fontface" : 0,
					"id" : "obj-222",
					"maxclass" : "comment",
					"numinlets" : 1,
					"numoutlets" : 0,
					"patching_rect" : [ 267.083251953125, 727.86669921875, 48.0, 20.0 ],
					"text" : "ft/s"
				}

			}
, 			{
				"box" : 				{
					"fontface" : 0,
					"format" : 6,
					"id" : "obj-223",
					"maxclass" : "flonum",
					"numinlets" : 1,
					"numoutlets" : 2,
					"outlettype" : [ "", "bang" ],
					"parameter_enable" : 0,
					"patching_rect" : [ 205.0, 725.86669921875, 60.0, 22.0 ]
				}

			}
, 			{
				"box" : 				{
					"id" : "obj-224",
					"maxclass" : "newobj",
					"numinlets" : 2,
					"numoutlets" : 1,
					"outlettype" : [ "float" ],
					"patching_rect" : [ 62.0, 697.066650390625, 45.0, 22.0 ],
					"text" : "/ 1.609"
				}

			}
, 			{
				"box" : 				{
					"fontface" : 0,
					"id" : "obj-225",
					"maxclass" : "comment",
					"numinlets" : 1,
					"numoutlets" : 0,
					"patching_rect" : [ 124.083251953125, 727.86669921875, 46.0, 20.0 ],
					"text" : "mi/hr"
				}

			}
, 			{
				"box" : 				{
					"fontface" : 0,
					"format" : 6,
					"id" : "obj-226",
					"maxclass" : "flonum",
					"numinlets" : 1,
					"numoutlets" : 2,
					"outlettype" : [ "", "bang" ],
					"parameter_enable" : 0,
					"patching_rect" : [ 62.0, 725.86669921875, 60.0, 22.0 ]
				}

			}
, 			{
				"box" : 				{
					"fontface" : 1,
					"id" : "obj-227",
					"maxclass" : "comment",
					"numinlets" : 1,
					"numoutlets" : 0,
					"patching_rect" : [ 124.083251953125, 641.066650390625, 48.916748046875, 20.0 ],
					"text" : "k/hr"
				}

			}
, 			{
				"box" : 				{
					"fontface" : 0,
					"format" : 6,
					"id" : "obj-228",
					"maxclass" : "flonum",
					"numinlets" : 1,
					"numoutlets" : 2,
					"outlettype" : [ "", "bang" ],
					"parameter_enable" : 0,
					"patching_rect" : [ 62.0, 639.066650390625, 60.0, 22.0 ]
				}

			}
, 			{
				"box" : 				{
					"id" : "obj-201",
					"maxclass" : "newobj",
					"numinlets" : 2,
					"numoutlets" : 1,
					"outlettype" : [ "float" ],
					"patching_rect" : [ 468.0, 546.066650390625, 47.0, 22.0 ],
					"text" : "* 1.688"
				}

			}
, 			{
				"box" : 				{
					"fontface" : 0,
					"id" : "obj-202",
					"maxclass" : "comment",
					"numinlets" : 1,
					"numoutlets" : 0,
					"patching_rect" : [ 530.083251953125, 576.86669921875, 45.0, 20.0 ],
					"text" : "f/s"
				}

			}
, 			{
				"box" : 				{
					"fontface" : 0,
					"format" : 6,
					"id" : "obj-203",
					"maxclass" : "flonum",
					"numinlets" : 1,
					"numoutlets" : 2,
					"outlettype" : [ "", "bang" ],
					"parameter_enable" : 0,
					"patching_rect" : [ 468.0, 574.86669921875, 60.0, 22.0 ]
				}

			}
, 			{
				"box" : 				{
					"id" : "obj-204",
					"maxclass" : "newobj",
					"numinlets" : 2,
					"numoutlets" : 1,
					"outlettype" : [ "float" ],
					"patching_rect" : [ 336.083251953125, 546.066650390625, 47.0, 22.0 ],
					"text" : "* 1.852"
				}

			}
, 			{
				"box" : 				{
					"fontface" : 0,
					"id" : "obj-205",
					"maxclass" : "comment",
					"numinlets" : 1,
					"numoutlets" : 0,
					"patching_rect" : [ 398.16650390625, 576.86669921875, 46.0, 20.0 ],
					"text" : "k/hr"
				}

			}
, 			{
				"box" : 				{
					"fontface" : 0,
					"format" : 6,
					"id" : "obj-206",
					"maxclass" : "flonum",
					"numinlets" : 1,
					"numoutlets" : 2,
					"outlettype" : [ "", "bang" ],
					"parameter_enable" : 0,
					"patching_rect" : [ 336.083251953125, 574.86669921875, 60.0, 22.0 ]
				}

			}
, 			{
				"box" : 				{
					"id" : "obj-207",
					"maxclass" : "newobj",
					"numinlets" : 2,
					"numoutlets" : 1,
					"outlettype" : [ "float" ],
					"patching_rect" : [ 205.0, 546.066650390625, 45.0, 22.0 ],
					"text" : "/ 1.944"
				}

			}
, 			{
				"box" : 				{
					"fontface" : 0,
					"id" : "obj-208",
					"maxclass" : "comment",
					"numinlets" : 1,
					"numoutlets" : 0,
					"patching_rect" : [ 267.083251953125, 576.86669921875, 48.0, 20.0 ],
					"text" : "m/s"
				}

			}
, 			{
				"box" : 				{
					"fontface" : 0,
					"format" : 6,
					"id" : "obj-209",
					"maxclass" : "flonum",
					"numinlets" : 1,
					"numoutlets" : 2,
					"outlettype" : [ "", "bang" ],
					"parameter_enable" : 0,
					"patching_rect" : [ 205.0, 574.86669921875, 60.0, 22.0 ]
				}

			}
, 			{
				"box" : 				{
					"id" : "obj-210",
					"maxclass" : "newobj",
					"numinlets" : 2,
					"numoutlets" : 1,
					"outlettype" : [ "float" ],
					"patching_rect" : [ 62.0, 546.066650390625, 47.0, 22.0 ],
					"text" : "* 1.151"
				}

			}
, 			{
				"box" : 				{
					"fontface" : 0,
					"id" : "obj-211",
					"maxclass" : "comment",
					"numinlets" : 1,
					"numoutlets" : 0,
					"patching_rect" : [ 124.083251953125, 576.86669921875, 46.0, 20.0 ],
					"text" : "mi/hr"
				}

			}
, 			{
				"box" : 				{
					"fontface" : 0,
					"format" : 6,
					"id" : "obj-212",
					"maxclass" : "flonum",
					"numinlets" : 1,
					"numoutlets" : 2,
					"outlettype" : [ "", "bang" ],
					"parameter_enable" : 0,
					"patching_rect" : [ 62.0, 574.86669921875, 60.0, 22.0 ]
				}

			}
, 			{
				"box" : 				{
					"fontface" : 1,
					"id" : "obj-213",
					"maxclass" : "comment",
					"numinlets" : 1,
					"numoutlets" : 0,
					"patching_rect" : [ 124.083251953125, 490.066650390625, 48.916748046875, 20.0 ],
					"text" : "knot"
				}

			}
, 			{
				"box" : 				{
					"fontface" : 0,
					"format" : 6,
					"id" : "obj-214",
					"maxclass" : "flonum",
					"numinlets" : 1,
					"numoutlets" : 2,
					"outlettype" : [ "", "bang" ],
					"parameter_enable" : 0,
					"patching_rect" : [ 62.0, 488.066650390625, 60.0, 22.0 ]
				}

			}
, 			{
				"box" : 				{
					"id" : "obj-186",
					"maxclass" : "newobj",
					"numinlets" : 2,
					"numoutlets" : 1,
					"outlettype" : [ "float" ],
					"patching_rect" : [ 468.0, 387.0, 45.0, 22.0 ],
					"text" : "/ 1.688"
				}

			}
, 			{
				"box" : 				{
					"fontface" : 0,
					"id" : "obj-187",
					"maxclass" : "comment",
					"numinlets" : 1,
					"numoutlets" : 0,
					"patching_rect" : [ 530.083251953125, 417.800048828125, 45.0, 20.0 ],
					"text" : "knot"
				}

			}
, 			{
				"box" : 				{
					"fontface" : 0,
					"format" : 6,
					"id" : "obj-188",
					"maxclass" : "flonum",
					"numinlets" : 1,
					"numoutlets" : 2,
					"outlettype" : [ "", "bang" ],
					"parameter_enable" : 0,
					"patching_rect" : [ 468.0, 415.800048828125, 60.0, 22.0 ]
				}

			}
, 			{
				"box" : 				{
					"id" : "obj-189",
					"maxclass" : "newobj",
					"numinlets" : 2,
					"numoutlets" : 1,
					"outlettype" : [ "float" ],
					"patching_rect" : [ 336.083251953125, 387.0, 47.0, 22.0 ],
					"text" : "* 1.097"
				}

			}
, 			{
				"box" : 				{
					"fontface" : 0,
					"id" : "obj-190",
					"maxclass" : "comment",
					"numinlets" : 1,
					"numoutlets" : 0,
					"patching_rect" : [ 398.16650390625, 417.800048828125, 46.0, 20.0 ],
					"text" : "k/hr"
				}

			}
, 			{
				"box" : 				{
					"fontface" : 0,
					"format" : 6,
					"id" : "obj-191",
					"maxclass" : "flonum",
					"numinlets" : 1,
					"numoutlets" : 2,
					"outlettype" : [ "", "bang" ],
					"parameter_enable" : 0,
					"patching_rect" : [ 336.083251953125, 415.800048828125, 60.0, 22.0 ]
				}

			}
, 			{
				"box" : 				{
					"id" : "obj-192",
					"maxclass" : "newobj",
					"numinlets" : 2,
					"numoutlets" : 1,
					"outlettype" : [ "float" ],
					"patching_rect" : [ 205.0, 387.0, 45.0, 22.0 ],
					"text" : "/ 3.281"
				}

			}
, 			{
				"box" : 				{
					"fontface" : 0,
					"id" : "obj-193",
					"maxclass" : "comment",
					"numinlets" : 1,
					"numoutlets" : 0,
					"patching_rect" : [ 267.083251953125, 417.800048828125, 48.0, 20.0 ],
					"text" : "m/s"
				}

			}
, 			{
				"box" : 				{
					"fontface" : 0,
					"format" : 6,
					"id" : "obj-194",
					"maxclass" : "flonum",
					"numinlets" : 1,
					"numoutlets" : 2,
					"outlettype" : [ "", "bang" ],
					"parameter_enable" : 0,
					"patching_rect" : [ 205.0, 415.800048828125, 60.0, 22.0 ]
				}

			}
, 			{
				"box" : 				{
					"id" : "obj-195",
					"maxclass" : "newobj",
					"numinlets" : 2,
					"numoutlets" : 1,
					"outlettype" : [ "float" ],
					"patching_rect" : [ 62.0, 387.0, 45.0, 22.0 ],
					"text" : "/ 1.467"
				}

			}
, 			{
				"box" : 				{
					"fontface" : 0,
					"id" : "obj-196",
					"maxclass" : "comment",
					"numinlets" : 1,
					"numoutlets" : 0,
					"patching_rect" : [ 124.083251953125, 417.800048828125, 46.0, 20.0 ],
					"text" : "mi/hr"
				}

			}
, 			{
				"box" : 				{
					"fontface" : 0,
					"format" : 6,
					"id" : "obj-197",
					"maxclass" : "flonum",
					"numinlets" : 1,
					"numoutlets" : 2,
					"outlettype" : [ "", "bang" ],
					"parameter_enable" : 0,
					"patching_rect" : [ 62.0, 415.800048828125, 60.0, 22.0 ]
				}

			}
, 			{
				"box" : 				{
					"fontface" : 1,
					"id" : "obj-198",
					"maxclass" : "comment",
					"numinlets" : 1,
					"numoutlets" : 0,
					"patching_rect" : [ 124.083251953125, 331.0, 48.916748046875, 20.0 ],
					"text" : "ft/s"
				}

			}
, 			{
				"box" : 				{
					"fontface" : 0,
					"format" : 6,
					"id" : "obj-199",
					"maxclass" : "flonum",
					"numinlets" : 1,
					"numoutlets" : 2,
					"outlettype" : [ "", "bang" ],
					"parameter_enable" : 0,
					"patching_rect" : [ 62.0, 329.0, 60.0, 22.0 ]
				}

			}
, 			{
				"box" : 				{
					"id" : "obj-172",
					"maxclass" : "newobj",
					"numinlets" : 2,
					"numoutlets" : 1,
					"outlettype" : [ "float" ],
					"patching_rect" : [ 468.0, 240.0, 45.0, 22.0 ],
					"text" : "/ 1.151"
				}

			}
, 			{
				"box" : 				{
					"fontface" : 0,
					"id" : "obj-173",
					"maxclass" : "comment",
					"numinlets" : 1,
					"numoutlets" : 0,
					"patching_rect" : [ 530.083251953125, 270.79998779296875, 45.0, 20.0 ],
					"text" : "knot"
				}

			}
, 			{
				"box" : 				{
					"fontface" : 0,
					"format" : 6,
					"id" : "obj-174",
					"maxclass" : "flonum",
					"numinlets" : 1,
					"numoutlets" : 2,
					"outlettype" : [ "", "bang" ],
					"parameter_enable" : 0,
					"patching_rect" : [ 468.0, 268.79998779296875, 60.0, 22.0 ]
				}

			}
, 			{
				"box" : 				{
					"id" : "obj-175",
					"maxclass" : "newobj",
					"numinlets" : 2,
					"numoutlets" : 1,
					"outlettype" : [ "float" ],
					"patching_rect" : [ 336.083251953125, 240.0, 47.0, 22.0 ],
					"text" : "* 1.609"
				}

			}
, 			{
				"box" : 				{
					"fontface" : 0,
					"id" : "obj-176",
					"maxclass" : "comment",
					"numinlets" : 1,
					"numoutlets" : 0,
					"patching_rect" : [ 398.16650390625, 270.79998779296875, 46.0, 20.0 ],
					"text" : "k/hr"
				}

			}
, 			{
				"box" : 				{
					"fontface" : 0,
					"format" : 6,
					"id" : "obj-177",
					"maxclass" : "flonum",
					"numinlets" : 1,
					"numoutlets" : 2,
					"outlettype" : [ "", "bang" ],
					"parameter_enable" : 0,
					"patching_rect" : [ 336.083251953125, 268.79998779296875, 60.0, 22.0 ]
				}

			}
, 			{
				"box" : 				{
					"id" : "obj-178",
					"maxclass" : "newobj",
					"numinlets" : 2,
					"numoutlets" : 1,
					"outlettype" : [ "float" ],
					"patching_rect" : [ 205.0, 240.0, 47.0, 22.0 ],
					"text" : "* 1.467"
				}

			}
, 			{
				"box" : 				{
					"fontface" : 0,
					"id" : "obj-179",
					"maxclass" : "comment",
					"numinlets" : 1,
					"numoutlets" : 0,
					"patching_rect" : [ 267.083251953125, 270.79998779296875, 48.0, 20.0 ],
					"text" : "ft/s"
				}

			}
, 			{
				"box" : 				{
					"fontface" : 0,
					"format" : 6,
					"id" : "obj-180",
					"maxclass" : "flonum",
					"numinlets" : 1,
					"numoutlets" : 2,
					"outlettype" : [ "", "bang" ],
					"parameter_enable" : 0,
					"patching_rect" : [ 205.0, 268.79998779296875, 60.0, 22.0 ]
				}

			}
, 			{
				"box" : 				{
					"id" : "obj-181",
					"maxclass" : "newobj",
					"numinlets" : 2,
					"numoutlets" : 1,
					"outlettype" : [ "float" ],
					"patching_rect" : [ 62.0, 240.0, 45.0, 22.0 ],
					"text" : "/ 2.237"
				}

			}
, 			{
				"box" : 				{
					"fontface" : 0,
					"id" : "obj-182",
					"maxclass" : "comment",
					"numinlets" : 1,
					"numoutlets" : 0,
					"patching_rect" : [ 124.083251953125, 270.79998779296875, 48.0, 20.0 ],
					"text" : "m/s"
				}

			}
, 			{
				"box" : 				{
					"fontface" : 0,
					"format" : 6,
					"id" : "obj-183",
					"maxclass" : "flonum",
					"numinlets" : 1,
					"numoutlets" : 2,
					"outlettype" : [ "", "bang" ],
					"parameter_enable" : 0,
					"patching_rect" : [ 62.0, 268.79998779296875, 60.0, 22.0 ]
				}

			}
, 			{
				"box" : 				{
					"fontface" : 1,
					"id" : "obj-184",
					"maxclass" : "comment",
					"numinlets" : 1,
					"numoutlets" : 0,
					"patching_rect" : [ 124.083251953125, 184.0, 48.916748046875, 20.0 ],
					"text" : "mi/hr"
				}

			}
, 			{
				"box" : 				{
					"fontface" : 0,
					"format" : 6,
					"id" : "obj-185",
					"maxclass" : "flonum",
					"numinlets" : 1,
					"numoutlets" : 2,
					"outlettype" : [ "", "bang" ],
					"parameter_enable" : 0,
					"patching_rect" : [ 62.0, 182.0, 60.0, 22.0 ]
				}

			}
, 			{
				"box" : 				{
					"id" : "obj-169",
					"maxclass" : "newobj",
					"numinlets" : 2,
					"numoutlets" : 1,
					"outlettype" : [ "float" ],
					"patching_rect" : [ 468.0, 91.0, 47.0, 22.0 ],
					"text" : "* 1.944"
				}

			}
, 			{
				"box" : 				{
					"fontface" : 0,
					"id" : "obj-170",
					"maxclass" : "comment",
					"numinlets" : 1,
					"numoutlets" : 0,
					"patching_rect" : [ 530.083251953125, 121.79998779296875, 45.0, 20.0 ],
					"text" : "knot"
				}

			}
, 			{
				"box" : 				{
					"fontface" : 0,
					"format" : 6,
					"id" : "obj-171",
					"maxclass" : "flonum",
					"numinlets" : 1,
					"numoutlets" : 2,
					"outlettype" : [ "", "bang" ],
					"parameter_enable" : 0,
					"patching_rect" : [ 468.0, 119.79998779296875, 60.0, 22.0 ]
				}

			}
, 			{
				"box" : 				{
					"id" : "obj-166",
					"maxclass" : "newobj",
					"numinlets" : 2,
					"numoutlets" : 1,
					"outlettype" : [ "float" ],
					"patching_rect" : [ 336.083251953125, 91.0, 33.0, 22.0 ],
					"text" : "* 3.6"
				}

			}
, 			{
				"box" : 				{
					"fontface" : 0,
					"id" : "obj-167",
					"maxclass" : "comment",
					"numinlets" : 1,
					"numoutlets" : 0,
					"patching_rect" : [ 398.16650390625, 121.79998779296875, 46.0, 20.0 ],
					"text" : "k/hr"
				}

			}
, 			{
				"box" : 				{
					"fontface" : 0,
					"format" : 6,
					"id" : "obj-168",
					"maxclass" : "flonum",
					"numinlets" : 1,
					"numoutlets" : 2,
					"outlettype" : [ "", "bang" ],
					"parameter_enable" : 0,
					"patching_rect" : [ 336.083251953125, 119.79998779296875, 60.0, 22.0 ]
				}

			}
, 			{
				"box" : 				{
					"id" : "obj-160",
					"maxclass" : "newobj",
					"numinlets" : 2,
					"numoutlets" : 1,
					"outlettype" : [ "float" ],
					"patching_rect" : [ 205.0, 91.0, 47.0, 22.0 ],
					"text" : "* 3.281"
				}

			}
, 			{
				"box" : 				{
					"fontface" : 0,
					"id" : "obj-161",
					"maxclass" : "comment",
					"numinlets" : 1,
					"numoutlets" : 0,
					"patching_rect" : [ 267.083251953125, 121.79998779296875, 48.0, 20.0 ],
					"text" : "ft/s"
				}

			}
, 			{
				"box" : 				{
					"fontface" : 0,
					"format" : 6,
					"id" : "obj-162",
					"maxclass" : "flonum",
					"numinlets" : 1,
					"numoutlets" : 2,
					"outlettype" : [ "", "bang" ],
					"parameter_enable" : 0,
					"patching_rect" : [ 205.0, 119.79998779296875, 60.0, 22.0 ]
				}

			}
, 			{
				"box" : 				{
					"id" : "obj-155",
					"maxclass" : "newobj",
					"numinlets" : 2,
					"numoutlets" : 1,
					"outlettype" : [ "float" ],
					"patching_rect" : [ 62.0, 91.0, 47.0, 22.0 ],
					"text" : "* 2.237"
				}

			}
, 			{
				"box" : 				{
					"fontface" : 0,
					"id" : "obj-156",
					"maxclass" : "comment",
					"numinlets" : 1,
					"numoutlets" : 0,
					"patching_rect" : [ 124.083251953125, 121.79998779296875, 46.0, 20.0 ],
					"text" : "mi/hr"
				}

			}
, 			{
				"box" : 				{
					"fontface" : 0,
					"format" : 6,
					"id" : "obj-157",
					"maxclass" : "flonum",
					"numinlets" : 1,
					"numoutlets" : 2,
					"outlettype" : [ "", "bang" ],
					"parameter_enable" : 0,
					"patching_rect" : [ 62.0, 119.79998779296875, 60.0, 22.0 ]
				}

			}
, 			{
				"box" : 				{
					"fontface" : 1,
					"id" : "obj-158",
					"maxclass" : "comment",
					"numinlets" : 1,
					"numoutlets" : 0,
					"patching_rect" : [ 124.083251953125, 35.0, 48.916748046875, 20.0 ],
					"text" : "m/s"
				}

			}
, 			{
				"box" : 				{
					"fontface" : 0,
					"format" : 6,
					"id" : "obj-159",
					"maxclass" : "flonum",
					"numinlets" : 1,
					"numoutlets" : 2,
					"outlettype" : [ "", "bang" ],
					"parameter_enable" : 0,
					"patching_rect" : [ 62.0, 33.0, 60.0, 22.0 ]
				}

			}
 ],
		"lines" : [ 			{
				"patchline" : 				{
					"destination" : [ "obj-157", 0 ],
					"source" : [ "obj-155", 0 ]
				}

			}
, 			{
				"patchline" : 				{
					"destination" : [ "obj-155", 0 ],
					"order" : 3,
					"source" : [ "obj-159", 0 ]
				}

			}
, 			{
				"patchline" : 				{
					"destination" : [ "obj-160", 0 ],
					"order" : 2,
					"source" : [ "obj-159", 0 ]
				}

			}
, 			{
				"patchline" : 				{
					"destination" : [ "obj-166", 0 ],
					"order" : 1,
					"source" : [ "obj-159", 0 ]
				}

			}
, 			{
				"patchline" : 				{
					"destination" : [ "obj-169", 0 ],
					"order" : 0,
					"source" : [ "obj-159", 0 ]
				}

			}
, 			{
				"patchline" : 				{
					"destination" : [ "obj-162", 0 ],
					"source" : [ "obj-160", 0 ]
				}

			}
, 			{
				"patchline" : 				{
					"destination" : [ "obj-168", 0 ],
					"source" : [ "obj-166", 0 ]
				}

			}
, 			{
				"patchline" : 				{
					"destination" : [ "obj-171", 0 ],
					"source" : [ "obj-169", 0 ]
				}

			}
, 			{
				"patchline" : 				{
					"destination" : [ "obj-174", 0 ],
					"source" : [ "obj-172", 0 ]
				}

			}
, 			{
				"patchline" : 				{
					"destination" : [ "obj-177", 0 ],
					"source" : [ "obj-175", 0 ]
				}

			}
, 			{
				"patchline" : 				{
					"destination" : [ "obj-180", 0 ],
					"source" : [ "obj-178", 0 ]
				}

			}
, 			{
				"patchline" : 				{
					"destination" : [ "obj-183", 0 ],
					"source" : [ "obj-181", 0 ]
				}

			}
, 			{
				"patchline" : 				{
					"destination" : [ "obj-172", 0 ],
					"order" : 0,
					"source" : [ "obj-185", 0 ]
				}

			}
, 			{
				"patchline" : 				{
					"destination" : [ "obj-175", 0 ],
					"order" : 1,
					"source" : [ "obj-185", 0 ]
				}

			}
, 			{
				"patchline" : 				{
					"destination" : [ "obj-178", 0 ],
					"order" : 2,
					"source" : [ "obj-185", 0 ]
				}

			}
, 			{
				"patchline" : 				{
					"destination" : [ "obj-181", 0 ],
					"order" : 3,
					"source" : [ "obj-185", 0 ]
				}

			}
, 			{
				"patchline" : 				{
					"destination" : [ "obj-188", 0 ],
					"source" : [ "obj-186", 0 ]
				}

			}
, 			{
				"patchline" : 				{
					"destination" : [ "obj-191", 0 ],
					"source" : [ "obj-189", 0 ]
				}

			}
, 			{
				"patchline" : 				{
					"destination" : [ "obj-194", 0 ],
					"source" : [ "obj-192", 0 ]
				}

			}
, 			{
				"patchline" : 				{
					"destination" : [ "obj-197", 0 ],
					"source" : [ "obj-195", 0 ]
				}

			}
, 			{
				"patchline" : 				{
					"destination" : [ "obj-186", 0 ],
					"order" : 0,
					"source" : [ "obj-199", 0 ]
				}

			}
, 			{
				"patchline" : 				{
					"destination" : [ "obj-189", 0 ],
					"order" : 1,
					"source" : [ "obj-199", 0 ]
				}

			}
, 			{
				"patchline" : 				{
					"destination" : [ "obj-192", 0 ],
					"order" : 2,
					"source" : [ "obj-199", 0 ]
				}

			}
, 			{
				"patchline" : 				{
					"destination" : [ "obj-195", 0 ],
					"order" : 3,
					"source" : [ "obj-199", 0 ]
				}

			}
, 			{
				"patchline" : 				{
					"destination" : [ "obj-203", 0 ],
					"source" : [ "obj-201", 0 ]
				}

			}
, 			{
				"patchline" : 				{
					"destination" : [ "obj-206", 0 ],
					"source" : [ "obj-204", 0 ]
				}

			}
, 			{
				"patchline" : 				{
					"destination" : [ "obj-209", 0 ],
					"source" : [ "obj-207", 0 ]
				}

			}
, 			{
				"patchline" : 				{
					"destination" : [ "obj-212", 0 ],
					"source" : [ "obj-210", 0 ]
				}

			}
, 			{
				"patchline" : 				{
					"destination" : [ "obj-201", 0 ],
					"order" : 0,
					"source" : [ "obj-214", 0 ]
				}

			}
, 			{
				"patchline" : 				{
					"destination" : [ "obj-204", 0 ],
					"order" : 1,
					"source" : [ "obj-214", 0 ]
				}

			}
, 			{
				"patchline" : 				{
					"destination" : [ "obj-207", 0 ],
					"order" : 2,
					"source" : [ "obj-214", 0 ]
				}

			}
, 			{
				"patchline" : 				{
					"destination" : [ "obj-210", 0 ],
					"order" : 3,
					"source" : [ "obj-214", 0 ]
				}

			}
, 			{
				"patchline" : 				{
					"destination" : [ "obj-217", 0 ],
					"source" : [ "obj-215", 0 ]
				}

			}
, 			{
				"patchline" : 				{
					"destination" : [ "obj-220", 0 ],
					"source" : [ "obj-218", 0 ]
				}

			}
, 			{
				"patchline" : 				{
					"destination" : [ "obj-223", 0 ],
					"source" : [ "obj-221", 0 ]
				}

			}
, 			{
				"patchline" : 				{
					"destination" : [ "obj-226", 0 ],
					"source" : [ "obj-224", 0 ]
				}

			}
, 			{
				"patchline" : 				{
					"destination" : [ "obj-215", 0 ],
					"order" : 0,
					"source" : [ "obj-228", 0 ]
				}

			}
, 			{
				"patchline" : 				{
					"destination" : [ "obj-218", 0 ],
					"order" : 1,
					"source" : [ "obj-228", 0 ]
				}

			}
, 			{
				"patchline" : 				{
					"destination" : [ "obj-221", 0 ],
					"order" : 2,
					"source" : [ "obj-228", 0 ]
				}

			}
, 			{
				"patchline" : 				{
					"destination" : [ "obj-224", 0 ],
					"order" : 3,
					"source" : [ "obj-228", 0 ]
				}

			}
 ],
		"dependency_cache" : [  ],
		"autosave" : 0
	}

}
